<svg width="113" height="65" viewBox="0 0 113 65" fill="none" xmlns="http://www.w3.org/2000/svg">
<path d="M100.866 55.2072C102.012 56.3723 103.417 56.9583 105.082 56.9583C106.747 56.9583 108.152 56.3723 109.297 55.2072C110.443 54.042 111.015 52.6142 111.015 50.9304C111.015 49.2466 110.443 47.8188 109.297 46.6536C108.152 45.4884 106.747 44.9025 105.082 44.9025C103.417 44.9025 102.012 45.4884 100.866 46.6536C99.7208 47.8188 99.148 49.2466 99.148 50.9304C99.148 52.6142 99.7208 54.042 100.866 55.2072ZM111.015 43.313H113V57.9349C113 60.1305 112.254 61.8547 110.769 63.1142C109.284 64.3736 107.506 65 105.441 65C101.905 65 99.5276 63.7607 98.3023 61.2822L100.047 60.2787C100.953 62.1241 102.744 63.0535 105.435 63.0535C107.16 63.0535 108.525 62.5888 109.517 61.6661C110.509 60.7434 111.009 59.4974 111.009 57.9349V55.5574C109.624 57.7934 107.592 58.9047 104.929 58.9047C102.778 58.9047 100.946 58.1302 99.4344 56.5879C97.916 55.0455 97.1635 53.153 97.1635 50.9237C97.1635 48.6876 97.9227 46.8018 99.4344 45.2594C100.953 43.7171 102.784 42.9426 104.929 42.9426C107.599 42.9426 109.624 44.0606 111.009 46.2899V43.313H111.015ZM89.4184 42.9493C91.2431 42.9493 92.6882 43.5151 93.7405 44.6398C94.7927 45.7646 95.3188 47.2867 95.3188 49.1927V58.541H93.3342V49.1927C93.3342 47.8322 92.9746 46.7748 92.262 46.0272C91.5494 45.2729 90.5439 44.9025 89.2386 44.9025C87.7934 44.9025 86.6214 45.3672 85.7157 46.2899C84.8099 47.2126 84.3637 48.6405 84.3637 50.5667V58.5478H82.3725V43.3197H84.3637V45.6972C85.4826 43.8653 87.1674 42.9493 89.4184 42.9493ZM77.2779 58.541V43.313H79.2692V58.541H77.2779ZM79.2958 39.6626C79.0161 39.9455 78.6765 40.0869 78.2702 40.0869C77.864 40.0869 77.5243 39.9455 77.2446 39.6626C76.9649 39.3797 76.8251 39.0362 76.8251 38.6254C76.8251 38.2213 76.9649 37.8711 77.2446 37.5882C77.5243 37.3053 77.864 37.1639 78.2702 37.1639C78.6765 37.1639 79.0161 37.3053 79.2958 37.5882C79.5755 37.8711 79.7153 38.2146 79.7153 38.6254C79.7153 39.0295 79.5755 39.373 79.2958 39.6626ZM62.0341 55.2072C63.1796 56.3723 64.5848 56.9583 66.2496 56.9583C67.9146 56.9583 69.3197 56.3723 70.4652 55.2072C71.6106 54.042 72.1833 52.6142 72.1833 50.9304C72.1833 49.2466 71.6106 47.8188 70.4652 46.6536C69.3197 45.4884 67.9146 44.9025 66.2496 44.9025C64.5848 44.9025 63.1796 45.4884 62.0341 46.6536C60.8887 47.8188 60.3159 49.2466 60.3159 50.9304C60.3159 52.6142 60.8887 54.042 62.0341 55.2072ZM72.1833 37.2245H74.1679V58.541H72.1833V55.5574C70.7981 57.7934 68.767 58.9047 66.0965 58.9047C63.9454 58.9047 62.114 58.1302 60.6023 56.5879C59.0839 55.0455 58.3314 53.153 58.3314 50.9237C58.3314 48.6876 59.0906 46.8018 60.6023 45.2594C62.1207 43.7171 63.9521 42.9426 66.0965 42.9426C68.767 42.9426 70.7915 44.0606 72.1833 46.2899V37.2245ZM50.5796 42.9493C52.4044 42.9493 53.8495 43.5151 54.9017 44.6398C55.9539 45.7646 56.48 47.2867 56.48 49.1927V58.541H54.4955V49.1927C54.4955 47.8322 54.1358 46.7748 53.4233 46.0272C52.7107 45.2729 51.7051 44.9025 50.3998 44.9025C48.9547 44.9025 47.7826 45.3672 46.8769 46.2899C45.9712 47.2126 45.525 48.6405 45.525 50.5667V58.5478H43.5338V43.3197H45.525V45.6972C46.6438 43.8653 48.3353 42.9493 50.5796 42.9493ZM28.29 55.2072C29.4354 56.3723 30.8406 56.9583 32.5055 56.9583C34.1704 56.9583 35.5756 56.3723 36.721 55.2072C37.8665 54.042 38.4392 52.6142 38.4392 50.9304C38.4392 49.2466 37.8665 47.8188 36.721 46.6536C35.5756 45.4884 34.1704 44.9025 32.5055 44.9025C30.8406 44.9025 29.4354 45.4884 28.29 46.6536C27.1445 47.8188 26.5718 49.2466 26.5718 50.9304C26.5718 52.6142 27.1445 54.042 28.29 55.2072ZM38.4392 43.313H40.4237V58.541H38.4392V55.5574C37.054 57.7934 35.0295 58.9047 32.359 58.9047C30.2079 58.9047 28.3765 58.1302 26.8648 56.5879C25.3464 55.0455 24.5939 53.153 24.5939 50.9237C24.5939 48.6876 25.3531 46.8018 26.8648 45.2594C28.3832 43.7171 30.2146 42.9426 32.359 42.9426C35.0295 42.9426 37.054 44.0606 38.4392 46.2899V43.313ZM20.0321 45.8454C20.9577 44 22.5427 43.0705 24.787 43.0705V45.017C23.4218 45.017 22.2897 45.4211 21.384 46.236C20.4783 47.051 20.0321 48.3239 20.0321 50.075V58.541H18.0475V43.313H20.0387V45.8454H20.0321ZM3.70273 55.2072C4.84819 56.3723 6.25336 56.9583 7.91826 56.9583C9.58316 56.9583 10.9883 56.3723 12.1338 55.2072C13.2792 54.042 13.852 52.6142 13.852 50.9304C13.852 49.2466 13.2792 47.8188 12.1338 46.6536C10.9883 45.4884 9.58316 44.9025 7.91826 44.9025C6.25336 44.9025 4.84819 45.4884 3.70273 46.6536C2.55728 47.8188 1.98456 49.2466 1.98456 50.9304C1.99122 52.6142 2.55728 54.042 3.70273 55.2072ZM8.07143 42.9493C10.2225 42.9493 12.0539 43.7239 13.5656 45.2662C15.084 46.8085 15.8365 48.7011 15.8365 50.9304C15.8365 53.1664 15.0773 55.0523 13.5656 56.5946C12.0472 58.1369 10.2158 58.9115 8.07143 58.9115C5.40093 58.9115 3.37641 57.7934 1.99122 55.5641V58.5478H0V37.2312H1.99122V46.3101C3.37641 44.0673 5.40093 42.9493 8.07143 42.9493Z" fill="#E40000"/>
<path d="M57.772 0.579217H62.6201V29.1831H57.0461V6.54649L51.7117 8.05515L50.3399 3.23284L57.772 0.579217ZM38.0729 29.7555C35.2692 29.7555 32.9117 29.1225 31.0004 27.8563C29.0891 26.5901 27.7439 24.8659 26.958 22.6905L31.7263 19.8685C32.8318 22.7848 34.9962 24.2395 38.2327 24.2395C39.7977 24.2395 40.9365 23.9567 41.6691 23.3842C42.395 22.8117 42.7612 22.091 42.7612 21.2155C42.7612 20.2052 42.315 19.424 41.4293 18.8649C40.5436 18.3059 38.952 17.6998 36.6611 17.0465C35.3957 16.6626 34.3235 16.2854 33.4511 15.9015C32.5787 15.5176 31.6997 15.0125 30.8272 14.3659C29.9548 13.7261 29.2822 12.9179 28.8294 11.9346C28.3699 10.9512 28.1434 9.813 28.1434 8.49966C28.1434 5.9134 29.0558 3.84573 30.8739 2.31013C32.6919 0.767799 34.8829 0 37.4402 0C39.7311 0 41.7423 0.565744 43.4805 1.69724C45.2186 2.82873 46.5705 4.398 47.5428 6.41852L42.8545 9.15296C41.7223 6.7014 39.9176 5.47561 37.4402 5.47561C36.2815 5.47561 35.3758 5.73828 34.7098 6.27035C34.0505 6.80242 33.7175 7.4894 33.7175 8.33129C33.7175 9.22705 34.0904 9.96117 34.8297 10.5202C35.5689 11.0792 36.994 11.6854 39.0918 12.3387C39.9509 12.6081 40.6102 12.8236 41.0497 12.9718C41.4959 13.1199 42.1019 13.3557 42.8678 13.6655C43.6336 13.9753 44.2264 14.2716 44.6459 14.541C45.0655 14.8104 45.5383 15.1809 46.0777 15.6456C46.6171 16.1103 47.03 16.5885 47.3097 17.0734C47.5894 17.5651 47.8358 18.1578 48.0356 18.8515C48.2354 19.5452 48.3353 20.2995 48.3353 21.1212C48.3353 23.7613 47.383 25.8627 45.485 27.4117C43.587 28.981 41.1163 29.7555 38.0729 29.7555ZM11.308 23.7883C13.7587 23.7883 15.7499 22.9666 17.2883 21.3165C18.8267 19.6664 19.5925 17.5247 19.5925 14.8778C19.5925 12.2376 18.8267 10.0891 17.2883 8.43905C15.7566 6.78895 13.7587 5.96728 11.308 5.96728H5.64732V23.7815H11.308V23.7883ZM11.308 0.579217C15.1839 0.579217 18.4271 1.95317 21.0243 4.70781C23.6216 7.45572 24.9202 10.8502 24.9202 14.8845C24.9202 18.9188 23.6216 22.3066 21.0243 25.0612C18.4271 27.8159 15.1839 29.1898 11.308 29.1898H0.0732422V0.579217H11.308Z" fill="#E40000"/>
</svg>
