<svg width="32" height="32" viewBox="0 0 32 32" fill="none" xmlns="http://www.w3.org/2000/svg">
<path d="M13.4991 17.6564C13.4991 18.7402 12.711 19.0828 11.7427 19.0828H9.20379V16.1122H11.7934C12.8405 16.1178 13.4991 16.5502 13.4991 17.6564ZM13.0657 13.0349C13.0657 12.0409 12.2944 11.8051 11.4387 11.8051H9.20942V14.3208H11.6132C12.4633 14.3208 13.0657 13.9502 13.0657 13.0349ZM20.5136 14.3377C19.4834 14.3377 18.7966 14.9779 18.729 16.0055H22.2306C22.1349 14.9666 21.5945 14.3377 20.5136 14.3377ZM28.2205 5.69544V25.462C28.2205 26.9501 27.0101 28.1574 25.5183 28.1574H5.70219C4.21036 28.1574 3 26.9501 3 25.462V5.69544C3 4.20733 4.21036 3 5.70219 3H25.5183C27.0101 3 28.2205 4.20733 28.2205 5.69544ZM18.2955 11.5917H22.6753V10.5304H18.2955V11.5917ZM15.8748 17.7856C15.8748 16.4323 15.2331 15.2642 13.9045 14.888C14.8728 14.4275 15.3794 13.8941 15.3794 12.8103C15.3794 10.6652 13.775 10.1429 11.9229 10.1429H6.82811V20.9247H12.0692C14.034 20.9134 15.8748 19.9756 15.8748 17.7856ZM24.3924 16.9545C24.3924 14.6465 23.0356 12.7204 20.5868 12.7204C18.1998 12.7204 16.5842 14.5062 16.5842 16.8534C16.5842 19.2849 18.121 20.9527 20.5868 20.9527C22.4558 20.9527 23.6662 20.116 24.2516 18.3247H22.3545C22.1462 18.9929 21.3074 19.3411 20.6543 19.3411C19.3933 19.3411 18.7346 18.6055 18.7346 17.3588H24.3755C24.3811 17.2297 24.3924 17.0893 24.3924 16.9545Z" fill="#1D1D1C"/>
</svg>
