<svg width="32" height="32" viewBox="0 0 32 32" fill="none" xmlns="http://www.w3.org/2000/svg">
<path d="M15.7769 1.99963C12.9011 2.00309 10.144 3.16313 8.11053 5.22528C6.07702 7.28743 4.9331 10.0833 4.92969 12.9996C4.92969 22.4117 14.7908 29.5211 15.2107 29.819C15.3767 29.9366 15.5744 29.9996 15.7769 29.9996C15.9794 29.9996 16.1771 29.9366 16.3432 29.819C16.763 29.5211 26.6241 22.4117 26.6241 12.9996C26.6207 10.0833 25.4768 7.28743 23.4433 5.22528C21.4098 3.16313 18.6527 2.00309 15.7769 1.99963ZM15.7776 9C16.5578 9 17.3204 9.23459 17.969 9.67412C18.6177 10.1136 19.1233 10.7384 19.4218 11.4693C19.7204 12.2002 19.7985 13.0044 19.6463 13.7804C19.4941 14.5563 19.1184 15.269 18.5668 15.8284C18.0151 16.3878 17.3123 16.7688 16.5472 16.9231C15.782 17.0775 14.9889 16.9983 14.2682 16.6955C13.5474 16.3928 12.9314 15.8801 12.4979 15.2223C12.0645 14.5645 11.8332 13.7911 11.8332 13C11.8332 12.4747 11.9352 11.9546 12.1334 11.4692C12.3316 10.9839 12.6222 10.543 12.9885 10.1715C13.3547 9.8001 13.7896 9.50546 14.2681 9.30445C14.7467 9.10343 15.2596 8.99998 15.7776 9Z" fill="#1D1D1C"/>
</svg>
