<svg width="662" height="157" viewBox="0 0 662 157" fill="none" xmlns="http://www.w3.org/2000/svg">
<path d="M579.469 33.58C578.637 33.58 577.89 33.3987 577.229 33.036C576.578 32.6733 576.066 32.1667 575.693 31.516C575.32 30.8547 575.133 30.1133 575.133 29.292C575.133 28.4707 575.32 27.7347 575.693 27.084C576.066 26.4333 576.578 25.9267 577.229 25.564C577.89 25.2013 578.637 25.02 579.469 25.02C580.194 25.02 580.84 25.164 581.405 25.452C581.981 25.7293 582.434 26.14 582.765 26.684L581.917 27.26C581.64 26.844 581.288 26.5347 580.861 26.332C580.434 26.1187 579.97 26.012 579.469 26.012C578.861 26.012 578.312 26.1507 577.821 26.428C577.341 26.6947 576.962 27.0787 576.685 27.58C576.418 28.0813 576.285 28.652 576.285 29.292C576.285 29.9427 576.418 30.5187 576.685 31.02C576.962 31.5107 577.341 31.8947 577.821 32.172C578.312 32.4387 578.861 32.572 579.469 32.572C579.97 32.572 580.434 32.4707 580.861 32.268C581.288 32.0653 581.64 31.756 581.917 31.34L582.765 31.916C582.434 32.46 581.981 32.876 581.405 33.164C580.829 33.4413 580.184 33.58 579.469 33.58ZM591.368 26.092H588.184V33.5H587.048V26.092H583.864V25.084H591.368V26.092ZM597.987 25.02C598.776 25.02 599.491 25.2013 600.131 25.564C600.771 25.916 601.272 26.4173 601.635 27.068C601.998 27.7187 602.179 28.46 602.179 29.292C602.179 30.1347 601.998 30.8813 601.635 31.532C601.272 32.1827 600.771 32.6893 600.131 33.052C599.502 33.404 598.787 33.58 597.987 33.58C597.304 33.58 596.686 33.4413 596.131 33.164C595.587 32.876 595.139 32.46 594.787 31.916V36.604H593.651V25.084H594.739V26.748C595.08 26.1933 595.528 25.7667 596.083 25.468C596.648 25.1693 597.283 25.02 597.987 25.02ZM597.907 32.572C598.494 32.572 599.027 32.4387 599.507 32.172C599.987 31.8947 600.36 31.5053 600.627 31.004C600.904 30.5027 601.043 29.932 601.043 29.292C601.043 28.652 600.904 28.0867 600.627 27.596C600.36 27.0947 599.987 26.7053 599.507 26.428C599.027 26.1507 598.494 26.012 597.907 26.012C597.31 26.012 596.771 26.1507 596.291 26.428C595.822 26.7053 595.448 27.0947 595.171 27.596C594.904 28.0867 594.771 28.652 594.771 29.292C594.771 29.932 594.904 30.5027 595.171 31.004C595.448 31.5053 595.822 31.8947 596.291 32.172C596.771 32.4387 597.31 32.572 597.907 32.572ZM608.109 25.02C609.208 25.02 610.05 25.2973 610.637 25.852C611.224 26.396 611.517 27.2067 611.517 28.284V33.5H610.429V32.188C610.173 32.6253 609.794 32.9667 609.293 33.212C608.802 33.4573 608.216 33.58 607.533 33.58C606.594 33.58 605.848 33.356 605.293 32.908C604.738 32.46 604.461 31.868 604.461 31.132C604.461 30.4173 604.717 29.8413 605.229 29.404C605.752 28.9667 606.578 28.748 607.709 28.748H610.381V28.236C610.381 27.5107 610.178 26.9613 609.773 26.588C609.368 26.204 608.776 26.012 607.997 26.012C607.464 26.012 606.952 26.1027 606.461 26.284C605.97 26.4547 605.549 26.6947 605.197 27.004L604.685 26.156C605.112 25.7933 605.624 25.516 606.221 25.324C606.818 25.1213 607.448 25.02 608.109 25.02ZM607.709 32.684C608.349 32.684 608.898 32.54 609.357 32.252C609.816 31.9533 610.157 31.5267 610.381 30.972V29.596H607.741C606.301 29.596 605.581 30.0973 605.581 31.1C605.581 31.5907 605.768 31.98 606.141 32.268C606.514 32.5453 607.037 32.684 607.709 32.684ZM621.101 26.092H617.917V33.5H616.781V26.092H613.597V25.084H621.101V26.092ZM630.353 29.644H623.313C623.377 30.5187 623.713 31.228 624.321 31.772C624.929 32.3053 625.697 32.572 626.625 32.572C627.148 32.572 627.628 32.4813 628.065 32.3C628.502 32.108 628.881 31.8307 629.201 31.468L629.841 32.204C629.468 32.652 628.998 32.9933 628.433 33.228C627.878 33.4627 627.265 33.58 626.593 33.58C625.729 33.58 624.961 33.3987 624.289 33.036C623.628 32.6627 623.11 32.1507 622.737 31.5C622.364 30.8493 622.177 30.1133 622.177 29.292C622.177 28.4707 622.353 27.7347 622.705 27.084C623.068 26.4333 623.558 25.9267 624.177 25.564C624.806 25.2013 625.51 25.02 626.289 25.02C627.068 25.02 627.766 25.2013 628.385 25.564C629.004 25.9267 629.489 26.4333 629.841 27.084C630.193 27.724 630.369 28.46 630.369 29.292L630.353 29.644ZM626.289 25.996C625.478 25.996 624.796 26.2573 624.241 26.78C623.697 27.292 623.388 27.964 623.313 28.796H629.281C629.206 27.964 628.892 27.292 628.337 26.78C627.793 26.2573 627.11 25.996 626.289 25.996ZM639.476 26.092H634.66V33.5H633.524V25.084H639.476V26.092ZM641.757 25.084H642.893V31.772L648.509 25.084H649.517V33.5H648.381V26.812L642.781 33.5H641.757V25.084ZM659.877 25.084V33.5H658.837V30.716H656.197H655.877L653.925 33.5H652.693L654.789 30.556C654.138 30.3747 653.637 30.0653 653.285 29.628C652.933 29.1907 652.757 28.636 652.757 27.964C652.757 27.0253 653.077 26.3107 653.717 25.82C654.357 25.3293 655.232 25.084 656.341 25.084H659.877ZM653.909 27.996C653.909 29.244 654.704 29.868 656.293 29.868H658.837V26.092H656.373C654.73 26.092 653.909 26.7267 653.909 27.996ZM543.31 51.084H544.446V57.772L550.062 51.084H551.07V59.5H549.934V52.812L544.334 59.5H543.31V51.084ZM561.845 51.084V59.5H560.709V52.092H556.677L556.565 54.172C556.48 55.9213 556.277 57.2653 555.957 58.204C555.637 59.1427 555.067 59.612 554.245 59.612C554.021 59.612 553.749 59.5693 553.429 59.484L553.509 58.508C553.701 58.5507 553.835 58.572 553.909 58.572C554.347 58.572 554.677 58.3693 554.901 57.964C555.125 57.5587 555.275 57.0573 555.349 56.46C555.424 55.8627 555.488 55.0733 555.541 54.092L555.685 51.084H561.845ZM572.595 51.084V59.5H571.459V52.092H567.427L567.315 54.172C567.229 55.9213 567.027 57.2653 566.707 58.204C566.387 59.1427 565.816 59.612 564.995 59.612C564.771 59.612 564.499 59.5693 564.179 59.484L564.259 58.508C564.451 58.5507 564.584 58.572 564.659 58.572C565.096 58.572 565.427 58.3693 565.651 57.964C565.875 57.5587 566.024 57.0573 566.099 56.46C566.173 55.8627 566.237 55.0733 566.291 54.092L566.435 51.084H572.595ZM583.696 51.02C584.485 51.02 585.195 51.2013 585.824 51.564C586.464 51.9267 586.965 52.4333 587.328 53.084C587.691 53.7347 587.872 54.4707 587.872 55.292C587.872 56.1133 587.691 56.8493 587.328 57.5C586.965 58.1507 586.464 58.6627 585.824 59.036C585.195 59.3987 584.485 59.58 583.696 59.58C582.949 59.58 582.272 59.42 581.664 59.1C581.056 58.7693 580.56 58.316 580.176 57.74C579.803 57.164 579.584 56.5027 579.52 55.756H577.6V59.5H576.464V51.084H577.6V54.716H579.536C579.621 53.9907 579.851 53.3507 580.224 52.796C580.608 52.2307 581.099 51.7933 581.696 51.484C582.293 51.1747 582.96 51.02 583.696 51.02ZM583.696 58.588C584.272 58.588 584.789 58.4493 585.248 58.172C585.717 57.8947 586.085 57.5053 586.352 57.004C586.619 56.5027 586.752 55.932 586.752 55.292C586.752 54.652 586.619 54.0813 586.352 53.58C586.085 53.0787 585.717 52.6947 585.248 52.428C584.789 52.1507 584.272 52.012 583.696 52.012C583.12 52.012 582.597 52.1507 582.128 52.428C581.669 52.6947 581.307 53.0787 581.04 53.58C580.773 54.0813 580.64 54.652 580.64 55.292C580.64 55.932 580.773 56.5027 581.04 57.004C581.307 57.5053 581.669 57.8947 582.128 58.172C582.597 58.4493 583.12 58.588 583.696 58.588ZM594.468 59.58C593.636 59.58 592.889 59.3987 592.228 59.036C591.577 58.6733 591.065 58.1667 590.692 57.516C590.319 56.8547 590.132 56.1133 590.132 55.292C590.132 54.4707 590.319 53.7347 590.692 53.084C591.065 52.4333 591.577 51.9267 592.228 51.564C592.889 51.2013 593.636 51.02 594.468 51.02C595.193 51.02 595.839 51.164 596.404 51.452C596.98 51.7293 597.433 52.14 597.764 52.684L596.916 53.26C596.639 52.844 596.287 52.5347 595.86 52.332C595.433 52.1187 594.969 52.012 594.468 52.012C593.86 52.012 593.311 52.1507 592.82 52.428C592.34 52.6947 591.961 53.0787 591.684 53.58C591.417 54.0813 591.284 54.652 591.284 55.292C591.284 55.9427 591.417 56.5187 591.684 57.02C591.961 57.5107 592.34 57.8947 592.82 58.172C593.311 58.4387 593.86 58.572 594.468 58.572C594.969 58.572 595.433 58.4707 595.86 58.268C596.287 58.0653 596.639 57.756 596.916 57.34L597.764 57.916C597.433 58.46 596.98 58.876 596.404 59.164C595.828 59.4413 595.183 59.58 594.468 59.58ZM606.367 52.092H603.183V59.5H602.047V52.092H598.863V51.084H606.367V52.092ZM612.986 51.02C613.775 51.02 614.49 51.2013 615.13 51.564C615.77 51.916 616.271 52.4173 616.634 53.068C616.996 53.7187 617.178 54.46 617.178 55.292C617.178 56.1347 616.996 56.8813 616.634 57.532C616.271 58.1827 615.77 58.6893 615.13 59.052C614.5 59.404 613.786 59.58 612.986 59.58C612.303 59.58 611.684 59.4413 611.13 59.164C610.586 58.876 610.138 58.46 609.786 57.916V62.604H608.65V51.084H609.738V52.748C610.079 52.1933 610.527 51.7667 611.082 51.468C611.647 51.1693 612.282 51.02 612.986 51.02ZM612.906 58.572C613.492 58.572 614.026 58.4387 614.506 58.172C614.986 57.8947 615.359 57.5053 615.626 57.004C615.903 56.5027 616.042 55.932 616.042 55.292C616.042 54.652 615.903 54.0867 615.626 53.596C615.359 53.0947 614.986 52.7053 614.506 52.428C614.026 52.1507 613.492 52.012 612.906 52.012C612.308 52.012 611.77 52.1507 611.29 52.428C610.82 52.7053 610.447 53.0947 610.17 53.596C609.903 54.0867 609.77 54.652 609.77 55.292C609.77 55.932 609.903 56.5027 610.17 57.004C610.447 57.5053 610.82 57.8947 611.29 58.172C611.77 58.4387 612.308 58.572 612.906 58.572ZM623.108 51.02C624.206 51.02 625.049 51.2973 625.636 51.852C626.222 52.396 626.516 53.2067 626.516 54.284V59.5H625.428V58.188C625.172 58.6253 624.793 58.9667 624.292 59.212C623.801 59.4573 623.214 59.58 622.532 59.58C621.593 59.58 620.846 59.356 620.292 58.908C619.737 58.46 619.46 57.868 619.46 57.132C619.46 56.4173 619.716 55.8413 620.228 55.404C620.75 54.9667 621.577 54.748 622.708 54.748H625.38V54.236C625.38 53.5107 625.177 52.9613 624.772 52.588C624.366 52.204 623.774 52.012 622.996 52.012C622.462 52.012 621.95 52.1027 621.46 52.284C620.969 52.4547 620.548 52.6947 620.196 53.004L619.684 52.156C620.11 51.7933 620.622 51.516 621.22 51.324C621.817 51.1213 622.446 51.02 623.108 51.02ZM622.708 58.684C623.348 58.684 623.897 58.54 624.356 58.252C624.814 57.9533 625.156 57.5267 625.38 56.972V55.596H622.74C621.3 55.596 620.58 56.0973 620.58 57.1C620.58 57.5907 620.766 57.98 621.14 58.268C621.513 58.5453 622.036 58.684 622.708 58.684ZM638.948 58.508V61.612H637.876V59.5H630.18V51.084H631.316V58.508H636.452V51.084H637.588V58.508H638.948ZM641.757 51.084H642.893V57.772L648.509 51.084H649.517V59.5H648.381V52.812L642.781 59.5H641.757V51.084ZM659.877 51.084V59.5H658.837V56.716H656.197H655.877L653.925 59.5H652.693L654.789 56.556C654.138 56.3747 653.637 56.0653 653.285 55.628C652.933 55.1907 652.757 54.636 652.757 53.964C652.757 53.0253 653.077 52.3107 653.717 51.82C654.357 51.3293 655.232 51.084 656.341 51.084H659.877ZM653.909 53.996C653.909 55.244 654.704 55.868 656.293 55.868H658.837V52.092H656.373C654.73 52.092 653.909 52.7267 653.909 53.996ZM581.895 81.756H579.975V85.5H578.839V77.084H579.975V80.78H581.911L584.871 77.084H586.103L582.791 81.164L586.343 85.5H584.999L581.895 81.756ZM591.951 85.58C591.14 85.58 590.41 85.3987 589.759 85.036C589.108 84.6627 588.596 84.1507 588.223 83.5C587.85 82.8493 587.663 82.1133 587.663 81.292C587.663 80.4707 587.85 79.7347 588.223 79.084C588.596 78.4333 589.108 77.9267 589.759 77.564C590.41 77.2013 591.14 77.02 591.951 77.02C592.762 77.02 593.492 77.2013 594.143 77.564C594.794 77.9267 595.3 78.4333 595.663 79.084C596.036 79.7347 596.223 80.4707 596.223 81.292C596.223 82.1133 596.036 82.8493 595.663 83.5C595.3 84.1507 594.794 84.6627 594.143 85.036C593.492 85.3987 592.762 85.58 591.951 85.58ZM591.951 84.572C592.548 84.572 593.082 84.4387 593.551 84.172C594.031 83.8947 594.404 83.5053 594.671 83.004C594.938 82.5027 595.071 81.932 595.071 81.292C595.071 80.652 594.938 80.0813 594.671 79.58C594.404 79.0787 594.031 78.6947 593.551 78.428C593.082 78.1507 592.548 78.012 591.951 78.012C591.354 78.012 590.815 78.1507 590.335 78.428C589.866 78.6947 589.492 79.0787 589.215 79.58C588.948 80.0813 588.815 80.652 588.815 81.292C588.815 81.932 588.948 82.5027 589.215 83.004C589.492 83.5053 589.866 83.8947 590.335 84.172C590.815 84.4387 591.354 84.572 591.951 84.572ZM606.843 77.084V85.5H605.707V78.092H600.427V85.5H599.291V77.084H606.843ZM610.712 77.084H611.848V83.772L617.464 77.084H618.472V85.5H617.336V78.812L611.736 85.5H610.712V77.084ZM626.704 77.02C627.493 77.02 628.208 77.2013 628.848 77.564C629.488 77.916 629.989 78.4173 630.352 79.068C630.715 79.7187 630.896 80.46 630.896 81.292C630.896 82.1347 630.715 82.8813 630.352 83.532C629.989 84.1827 629.488 84.6893 628.848 85.052C628.219 85.404 627.504 85.58 626.704 85.58C626.021 85.58 625.403 85.4413 624.848 85.164C624.304 84.876 623.856 84.46 623.504 83.916V88.604H622.368V77.084H623.456V78.748C623.797 78.1933 624.245 77.7667 624.8 77.468C625.365 77.1693 626 77.02 626.704 77.02ZM626.624 84.572C627.211 84.572 627.744 84.4387 628.224 84.172C628.704 83.8947 629.077 83.5053 629.344 83.004C629.621 82.5027 629.76 81.932 629.76 81.292C629.76 80.652 629.621 80.0867 629.344 79.596C629.077 79.0947 628.704 78.7053 628.224 78.428C627.744 78.1507 627.211 78.012 626.624 78.012C626.027 78.012 625.488 78.1507 625.008 78.428C624.539 78.7053 624.165 79.0947 623.888 79.596C623.621 80.0867 623.488 80.652 623.488 81.292C623.488 81.932 623.621 82.5027 623.888 83.004C624.165 83.5053 624.539 83.8947 625.008 84.172C625.488 84.4387 626.027 84.572 626.624 84.572ZM636.826 77.02C637.924 77.02 638.767 77.2973 639.354 77.852C639.94 78.396 640.234 79.2067 640.234 80.284V85.5H639.146V84.188C638.89 84.6253 638.511 84.9667 638.01 85.212C637.519 85.4573 636.932 85.58 636.25 85.58C635.311 85.58 634.564 85.356 634.01 84.908C633.455 84.46 633.178 83.868 633.178 83.132C633.178 82.4173 633.434 81.8413 633.946 81.404C634.468 80.9667 635.295 80.748 636.426 80.748H639.098V80.236C639.098 79.5107 638.895 78.9613 638.49 78.588C638.084 78.204 637.492 78.012 636.714 78.012C636.18 78.012 635.668 78.1027 635.178 78.284C634.687 78.4547 634.266 78.6947 633.914 79.004L633.402 78.156C633.828 77.7933 634.34 77.516 634.938 77.324C635.535 77.1213 636.164 77.02 636.826 77.02ZM636.426 84.684C637.066 84.684 637.615 84.54 638.074 84.252C638.532 83.9533 638.874 83.5267 639.098 82.972V81.596H636.458C635.018 81.596 634.298 82.0973 634.298 83.1C634.298 83.5907 634.484 83.98 634.858 84.268C635.231 84.5453 635.754 84.684 636.426 84.684ZM643.898 77.084H645.034V83.772L650.65 77.084H651.658V85.5H650.522V78.812L644.922 85.5H643.898V77.084ZM647.722 75.868C646.997 75.868 646.421 75.6867 645.994 75.324C645.567 74.9613 645.349 74.4493 645.338 73.788H646.154C646.165 74.204 646.314 74.54 646.602 74.796C646.89 75.0413 647.263 75.164 647.722 75.164C648.181 75.164 648.554 75.0413 648.842 74.796C649.141 74.54 649.295 74.204 649.306 73.788H650.122C650.111 74.4493 649.887 74.9613 649.45 75.324C649.023 75.6867 648.447 75.868 647.722 75.868ZM661.474 78.092H658.29V85.5H657.154V78.092H653.97V77.084H661.474V78.092ZM493.134 103.02C493.923 103.02 494.638 103.201 495.278 103.564C495.918 103.916 496.419 104.417 496.782 105.068C497.145 105.719 497.326 106.46 497.326 107.292C497.326 108.135 497.145 108.881 496.782 109.532C496.419 110.183 495.918 110.689 495.278 111.052C494.649 111.404 493.934 111.58 493.134 111.58C492.451 111.58 491.833 111.441 491.278 111.164C490.734 110.876 490.286 110.46 489.934 109.916V114.604H488.798V103.084H489.886V104.748C490.227 104.193 490.675 103.767 491.23 103.468C491.795 103.169 492.43 103.02 493.134 103.02ZM493.054 110.572C493.641 110.572 494.174 110.439 494.654 110.172C495.134 109.895 495.507 109.505 495.774 109.004C496.051 108.503 496.19 107.932 496.19 107.292C496.19 106.652 496.051 106.087 495.774 105.596C495.507 105.095 495.134 104.705 494.654 104.428C494.174 104.151 493.641 104.012 493.054 104.012C492.457 104.012 491.918 104.151 491.438 104.428C490.969 104.705 490.595 105.095 490.318 105.596C490.051 106.087 489.918 106.652 489.918 107.292C489.918 107.932 490.051 108.503 490.318 109.004C490.595 109.505 490.969 109.895 491.438 110.172C491.918 110.439 492.457 110.572 493.054 110.572ZM507.767 107.644H500.727C500.791 108.519 501.127 109.228 501.735 109.772C502.343 110.305 503.111 110.572 504.039 110.572C504.561 110.572 505.041 110.481 505.479 110.3C505.916 110.108 506.295 109.831 506.615 109.468L507.255 110.204C506.881 110.652 506.412 110.993 505.847 111.228C505.292 111.463 504.679 111.58 504.007 111.58C503.143 111.58 502.375 111.399 501.703 111.036C501.041 110.663 500.524 110.151 500.151 109.5C499.777 108.849 499.591 108.113 499.591 107.292C499.591 106.471 499.767 105.735 500.119 105.084C500.481 104.433 500.972 103.927 501.591 103.564C502.22 103.201 502.924 103.02 503.703 103.02C504.481 103.02 505.18 103.201 505.799 103.564C506.417 103.927 506.903 104.433 507.255 105.084C507.607 105.724 507.783 106.46 507.783 107.292L507.767 107.644ZM503.703 103.996C502.892 103.996 502.209 104.257 501.655 104.78C501.111 105.292 500.801 105.964 500.727 106.796H506.695C506.62 105.964 506.305 105.292 505.751 104.78C505.207 104.257 504.524 103.996 503.703 103.996ZM518.973 110.508V113.532H517.901V111.5H510.365V113.532H509.293V110.508H509.773C510.339 110.476 510.723 110.06 510.925 109.26C511.128 108.46 511.267 107.34 511.341 105.9L511.453 103.084H517.661V110.508H518.973ZM512.381 105.964C512.328 107.159 512.227 108.145 512.077 108.924C511.928 109.692 511.661 110.22 511.277 110.508H516.525V104.092H512.477L512.381 105.964ZM521.827 103.084H522.963V109.772L528.579 103.084H529.587V111.5H528.451V104.812L522.851 111.5H521.827V103.084ZM537.407 107.116C538.004 107.255 538.463 107.495 538.783 107.836C539.114 108.177 539.279 108.593 539.279 109.084C539.279 109.575 539.108 110.012 538.767 110.396C538.436 110.78 537.983 111.079 537.407 111.292C536.831 111.495 536.196 111.596 535.503 111.596C534.895 111.596 534.298 111.511 533.711 111.34C533.124 111.159 532.612 110.897 532.175 110.556L532.559 109.708C532.943 109.996 533.391 110.22 533.903 110.38C534.415 110.54 534.932 110.62 535.455 110.62C536.234 110.62 536.868 110.476 537.359 110.188C537.86 109.889 538.111 109.489 538.111 108.988C538.111 108.54 537.908 108.193 537.503 107.948C537.098 107.692 536.543 107.564 535.839 107.564H534.399V106.732H535.775C536.404 106.732 536.911 106.615 537.295 106.38C537.679 106.135 537.871 105.809 537.871 105.404C537.871 104.956 537.652 104.604 537.215 104.348C536.788 104.092 536.228 103.964 535.535 103.964C534.628 103.964 533.732 104.193 532.847 104.652L532.527 103.772C533.53 103.249 534.57 102.988 535.647 102.988C536.287 102.988 536.863 103.084 537.375 103.276C537.898 103.457 538.303 103.719 538.591 104.06C538.89 104.401 539.039 104.796 539.039 105.244C539.039 105.671 538.89 106.049 538.591 106.38C538.303 106.711 537.908 106.956 537.407 107.116ZM545.394 103.02C546.493 103.02 547.335 103.297 547.922 103.852C548.509 104.396 548.802 105.207 548.802 106.284V111.5H547.714V110.188C547.458 110.625 547.079 110.967 546.578 111.212C546.087 111.457 545.501 111.58 544.818 111.58C543.879 111.58 543.133 111.356 542.578 110.908C542.023 110.46 541.746 109.868 541.746 109.132C541.746 108.417 542.002 107.841 542.514 107.404C543.037 106.967 543.863 106.748 544.994 106.748H547.666V106.236C547.666 105.511 547.463 104.961 547.058 104.588C546.653 104.204 546.061 104.012 545.282 104.012C544.749 104.012 544.237 104.103 543.746 104.284C543.255 104.455 542.834 104.695 542.482 105.004L541.97 104.156C542.397 103.793 542.909 103.516 543.506 103.324C544.103 103.121 544.733 103.02 545.394 103.02ZM544.994 110.684C545.634 110.684 546.183 110.54 546.642 110.252C547.101 109.953 547.442 109.527 547.666 108.972V107.596H545.026C543.586 107.596 542.866 108.097 542.866 109.1C542.866 109.591 543.053 109.98 543.426 110.268C543.799 110.545 544.322 110.684 544.994 110.684ZM552.466 103.084H553.602V109.772L559.218 103.084H560.226V111.5H559.09V104.812L553.49 111.5H552.466V103.084ZM556.29 101.868C555.565 101.868 554.989 101.687 554.562 101.324C554.135 100.961 553.917 100.449 553.906 99.788H554.722C554.733 100.204 554.882 100.54 555.17 100.796C555.458 101.041 555.831 101.164 556.29 101.164C556.749 101.164 557.122 101.041 557.41 100.796C557.709 100.54 557.863 100.204 557.874 99.788H558.69C558.679 100.449 558.455 100.961 558.018 101.324C557.591 101.687 557.015 101.868 556.29 101.868ZM564.122 103.084H565.258V106.812H570.554V103.084H571.69V111.5H570.554V107.788H565.258V111.5H564.122V103.084ZM587.538 103.084L583.33 112.508C582.989 113.297 582.594 113.857 582.146 114.188C581.698 114.519 581.159 114.684 580.53 114.684C580.125 114.684 579.746 114.62 579.394 114.492C579.042 114.364 578.738 114.172 578.482 113.916L579.01 113.068C579.437 113.495 579.949 113.708 580.546 113.708C580.93 113.708 581.255 113.601 581.522 113.388C581.799 113.175 582.055 112.812 582.29 112.3L582.658 111.484L578.898 103.084H580.082L583.25 110.236L586.418 103.084H587.538ZM597.5 103.084V111.5H596.364V104.092H591.084V111.5H589.948V103.084H597.5ZM604.265 103.02C605.364 103.02 606.206 103.297 606.793 103.852C607.38 104.396 607.673 105.207 607.673 106.284V111.5H606.585V110.188C606.329 110.625 605.95 110.967 605.449 111.212C604.958 111.457 604.372 111.58 603.689 111.58C602.75 111.58 602.004 111.356 601.449 110.908C600.894 110.46 600.617 109.868 600.617 109.132C600.617 108.417 600.873 107.841 601.385 107.404C601.908 106.967 602.734 106.748 603.865 106.748H606.537V106.236C606.537 105.511 606.334 104.961 605.929 104.588C605.524 104.204 604.932 104.012 604.153 104.012C603.62 104.012 603.108 104.103 602.617 104.284C602.126 104.455 601.705 104.695 601.353 105.004L600.841 104.156C601.268 103.793 601.78 103.516 602.377 103.324C602.974 103.121 603.604 103.02 604.265 103.02ZM603.865 110.684C604.505 110.684 605.054 110.54 605.513 110.252C605.972 109.953 606.313 109.527 606.537 108.972V107.596H603.897C602.457 107.596 601.737 108.097 601.737 109.1C601.737 109.591 601.924 109.98 602.297 110.268C602.67 110.545 603.193 110.684 603.865 110.684ZM614.393 107.756H612.473V111.5H611.337V103.084H612.473V106.78H614.409L617.369 103.084H618.601L615.289 107.164L618.841 111.5H617.497L614.393 107.756ZM624.449 111.58C623.639 111.58 622.908 111.399 622.257 111.036C621.607 110.663 621.095 110.151 620.721 109.5C620.348 108.849 620.161 108.113 620.161 107.292C620.161 106.471 620.348 105.735 620.721 105.084C621.095 104.433 621.607 103.927 622.257 103.564C622.908 103.201 623.639 103.02 624.449 103.02C625.26 103.02 625.991 103.201 626.641 103.564C627.292 103.927 627.799 104.433 628.161 105.084C628.535 105.735 628.721 106.471 628.721 107.292C628.721 108.113 628.535 108.849 628.161 109.5C627.799 110.151 627.292 110.663 626.641 111.036C625.991 111.399 625.26 111.58 624.449 111.58ZM624.449 110.572C625.047 110.572 625.58 110.439 626.049 110.172C626.529 109.895 626.903 109.505 627.169 109.004C627.436 108.503 627.569 107.932 627.569 107.292C627.569 106.652 627.436 106.081 627.169 105.58C626.903 105.079 626.529 104.695 626.049 104.428C625.58 104.151 625.047 104.012 624.449 104.012C623.852 104.012 623.313 104.151 622.833 104.428C622.364 104.695 621.991 105.079 621.713 105.58C621.447 106.081 621.313 106.652 621.313 107.292C621.313 107.932 621.447 108.503 621.713 109.004C621.991 109.505 622.364 109.895 622.833 110.172C623.313 110.439 623.852 110.572 624.449 110.572ZM637.149 107.148C638.29 107.415 638.861 108.103 638.861 109.212C638.861 109.948 638.589 110.513 638.045 110.908C637.501 111.303 636.69 111.5 635.613 111.5H631.789V103.084H635.501C636.461 103.084 637.213 103.271 637.757 103.644C638.301 104.017 638.573 104.551 638.573 105.244C638.573 105.703 638.445 106.097 638.189 106.428C637.944 106.748 637.597 106.988 637.149 107.148ZM632.893 106.828H635.421C636.072 106.828 636.568 106.705 636.909 106.46C637.261 106.215 637.437 105.857 637.437 105.388C637.437 104.919 637.261 104.567 636.909 104.332C636.568 104.097 636.072 103.98 635.421 103.98H632.893V106.828ZM635.565 110.604C636.29 110.604 636.834 110.487 637.197 110.252C637.56 110.017 637.741 109.649 637.741 109.148C637.741 108.647 637.576 108.279 637.245 108.044C636.914 107.799 636.392 107.676 635.677 107.676H632.893V110.604H635.565ZM645.22 107.756H643.3V111.5H642.164V103.084H643.3V106.78H645.236L648.196 103.084H649.428L646.116 107.164L649.668 111.5H648.324L645.22 107.756ZM652.1 103.084H653.236V109.772L658.852 103.084H659.86V111.5H658.724V104.812L653.124 111.5H652.1V103.084Z" fill="#E40000"/>
<g clip-path="url(#clip0)">
<path d="M552.411 20.4231L555.729 16.7967C555.819 16.7026 555.844 16.565 555.795 16.445C555.738 16.3268 555.619 16.2504 555.488 16.2472H544.828C544.828 16.2472 544.696 16.2472 544.696 16.2692V15.8736C545.26 15.7838 545.661 15.2778 545.619 14.7088C545.62 14.0497 545.092 13.512 544.433 13.5C543.758 13.4996 543.204 14.0341 543.18 14.7088C543.202 15.2351 543.541 15.6955 544.037 15.8736V33.1703C544.037 33.3524 544.185 33.5 544.367 33.5C544.549 33.5 544.696 33.3524 544.696 33.1703V24.5989H555.488C555.622 24.6077 555.747 24.5275 555.795 24.4011C555.839 24.2806 555.814 24.1459 555.729 24.0495L552.411 20.4231Z" fill="#E40000"/>
</g>
<g clip-path="url(#clip1)">
<path d="M523.411 46.4231L526.729 42.7967C526.819 42.7026 526.844 42.565 526.795 42.445C526.738 42.3268 526.619 42.2504 526.488 42.2472H515.828C515.828 42.2472 515.696 42.2472 515.696 42.2692V41.8736C516.26 41.7838 516.661 41.2778 516.619 40.7088C516.62 40.0497 516.092 39.512 515.433 39.5C514.758 39.4996 514.204 40.0341 514.18 40.7088C514.202 41.2351 514.541 41.6955 515.037 41.8736V59.1703C515.037 59.3524 515.185 59.5 515.367 59.5C515.549 59.5 515.696 59.3524 515.696 59.1703V50.5989H526.488C526.622 50.6077 526.747 50.5275 526.795 50.4011C526.839 50.2806 526.814 50.1459 526.729 50.0495L523.411 46.4231Z" fill="#E40000"/>
</g>
<g clip-path="url(#clip2)">
<path d="M558.411 72.4231L561.729 68.7967C561.819 68.7026 561.844 68.565 561.795 68.445C561.738 68.3268 561.619 68.2504 561.488 68.2472H550.828C550.828 68.2472 550.696 68.2472 550.696 68.2692V67.8736C551.26 67.7838 551.661 67.2778 551.619 66.7088C551.62 66.0497 551.092 65.512 550.433 65.5C549.758 65.4996 549.204 66.0341 549.18 66.7088C549.202 67.2351 549.541 67.6955 550.037 67.8736V85.1703C550.037 85.3524 550.185 85.5 550.367 85.5C550.549 85.5 550.696 85.3524 550.696 85.1703V76.5989H561.488C561.622 76.6077 561.747 76.5275 561.795 76.4011C561.839 76.2806 561.814 76.1459 561.729 76.0495L558.411 72.4231Z" fill="#E40000"/>
</g>
<g clip-path="url(#clip3)">
<path d="M471.411 98.4231L474.729 94.7967C474.819 94.7026 474.844 94.565 474.795 94.445C474.738 94.3268 474.619 94.2504 474.488 94.2472H463.828C463.828 94.2472 463.696 94.2472 463.696 94.2692V93.8736C464.26 93.7838 464.661 93.2778 464.619 92.7088C464.62 92.0497 464.092 91.512 463.433 91.5C462.758 91.4996 462.204 92.0341 462.18 92.7088C462.202 93.2351 462.541 93.6955 463.037 93.8736V111.17C463.037 111.352 463.185 111.5 463.367 111.5C463.549 111.5 463.696 111.352 463.696 111.17V102.599H474.488C474.622 102.608 474.747 102.527 474.795 102.401C474.839 102.281 474.814 102.146 474.729 102.049L471.411 98.4231Z" fill="#E40000"/>
</g>
<path d="M1 132.5H101.77C108.202 132.5 109.071 123.191 102.75 122V122C96.4286 120.809 97.2976 111.5 103.73 111.5H330.75C334.478 111.5 337.5 108.478 337.5 104.75V104.75C337.5 101.022 340.522 98 344.25 98H399.25C402.978 98 406 101.022 406 104.75V104.75C406 108.478 409.022 111.5 412.75 111.5H474.5" stroke="#939393" stroke-width="2" stroke-linecap="round" stroke-linejoin="bevel" stroke-dasharray="1 6"/>
<path d="M527.5 60H325.5C321.634 60 318.5 63.134 318.5 67V67C318.5 70.866 315.366 74 311.5 74H262.5C258.082 74 254.5 70.4183 254.5 66V56.5C254.5 52.0817 250.918 48.5 246.5 48.5H1.5" stroke="#939393" stroke-width="2" stroke-linecap="round" stroke-linejoin="bevel" stroke-dasharray="1 6"/>
<path d="M556 34H506.5C502.082 34 498.5 30.4183 498.5 26V24C498.5 19.5817 494.918 16 490.5 16H354.5C350.358 16 347 12.6421 347 8.5V8.25C347 4.24594 350.246 1 354.25 1V1C358.254 1 361.5 4.24594 361.5 8.25V16.5C361.5 20.9183 357.918 24.5 353.5 24.5H1.5" stroke="#939393" stroke-width="2" stroke-linecap="round" stroke-linejoin="round" stroke-dasharray="1 6"/>
<path d="M561.5 85H245C240.582 85 237 81.4183 237 77V67.5C237 63.0817 240.582 59.5 245 59.5H266C270.418 59.5 274 63.0817 274 67.5V84.5C274 88.9183 270.418 92.5 266 92.5H139.25C135.522 92.5 132.5 89.4779 132.5 85.75V85.75C132.5 82.0221 129.478 79 125.75 79H1.5" stroke="#939393" stroke-width="2" stroke-linecap="round" stroke-linejoin="round" stroke-dasharray="1 6"/>
<defs>
<clipPath id="clip0">
<rect width="20" height="20" fill="white" transform="translate(539.5 13.5)"/>
</clipPath>
<clipPath id="clip1">
<rect width="20" height="20" fill="white" transform="translate(510.5 39.5)"/>
</clipPath>
<clipPath id="clip2">
<rect width="20" height="20" fill="white" transform="translate(545.5 65.5)"/>
</clipPath>
<clipPath id="clip3">
<rect width="20" height="20" fill="white" transform="translate(458.5 91.5)"/>
</clipPath>
</defs>
</svg>
