<svg width="40" height="40" viewBox="0 0 40 40" fill="none" xmlns="http://www.w3.org/2000/svg">
<g clip-path="url(#clip0)">
<path d="M35.035 15.535C35.035 21.5814 31.6127 27.4591 28.1214 31.8696C26.383 34.0657 24.6434 35.8781 23.3384 37.1414C22.6861 37.7728 22.1432 38.2663 21.7642 38.6012C21.5748 38.7686 21.4263 38.8963 21.3258 38.9818C21.2755 39.0245 21.2373 39.0566 21.2118 39.0779L21.1833 39.1015L21.1765 39.1072L21.175 39.1084L21.1748 39.1086C20.5386 39.6305 19.4612 39.6305 18.8251 39.1086L18.8248 39.1084L18.8233 39.1072L18.8165 39.1015L18.788 39.0779C18.7626 39.0566 18.7243 39.0245 18.674 38.9818C18.5735 38.8963 18.4251 38.7686 18.2356 38.6012C17.8566 38.2663 17.3137 37.7728 16.6614 37.1414C15.3564 35.8781 13.6168 34.0657 11.8784 31.8696C8.38714 27.4591 4.96484 21.5814 4.96484 15.535C4.96499 7.23139 11.6964 0.5 20 0.5C28.3035 0.5 35.035 7.23139 35.035 15.535Z" stroke="white"/>
<path d="M20.0003 22.8508C15.9667 22.8508 12.6846 19.5685 12.6846 15.5351C12.6846 11.5017 15.9669 8.21923 20.0003 8.21923C24.0337 8.21923 27.316 11.5016 27.316 15.5349C27.316 19.5684 24.0338 22.8508 20.0003 22.8508Z" stroke="white"/>
</g>
<defs>
<clipPath id="clip0">
<rect width="40" height="40" fill="white"/>
</clipPath>
</defs>
</svg>
