<svg width="20" height="14" viewBox="0 0 20 14" fill="none" xmlns="http://www.w3.org/2000/svg">
<path d="M5.58347 13.5434H0.84314V0.874451H5.58347C7.25192 0.874451 8.66035 2.42048 8.66035 4.387C8.66035 5.44528 8.24778 6.39 7.60389 7.03186L7.42627 7.20891L7.60389 7.38597C8.24778 8.02783 8.66035 8.97254 8.66035 10.0308C8.66035 11.9973 7.25192 13.5434 5.58347 13.5434ZM2.00658 11.9121V12.1621H2.25658H5.58347C6.66684 12.1621 7.49691 11.1765 7.49691 10.0308C7.49691 8.88516 6.66684 7.89955 5.58347 7.89955H2.25658H2.00658V8.14955V11.9121ZM2.00658 6.26827V6.51827H2.25658H5.58347C6.66684 6.51827 7.49691 5.53266 7.49691 4.387C7.49691 3.24134 6.66684 2.25573 5.58347 2.25573H2.25658H2.00658V2.50573V6.26827Z" fill="white" stroke="#232323" stroke-width="0.5"/>
<path d="M15.8415 12.241C16.7428 12.241 17.5793 11.7615 18.0874 10.9865L19.1075 11.6258C18.3847 12.8198 17.1497 13.543 15.8415 13.543C13.7049 13.543 11.9329 11.6532 11.9329 9.28787C11.9329 6.92255 13.7049 5.03271 15.8415 5.03271C17.978 5.03271 19.7501 6.92255 19.7501 9.28787V9.9389H13.4888H13.1439L13.2512 10.2667C13.6236 11.4043 14.6348 12.241 15.8415 12.241ZM13.2512 8.30907L13.1439 8.63684H13.4888H18.1941H18.539L18.4317 8.30907C18.0594 7.17148 17.0481 6.33478 15.8415 6.33478C14.6348 6.33478 13.6236 7.17148 13.2512 8.30907Z" fill="white" stroke="#232323" stroke-width="0.5"/>
<path d="M12.6259 0.874084H19.0569V2.45339H12.6259V0.874084Z" fill="white" stroke="#232323" stroke-width="0.5"/>
</svg>
