<svg width="24" height="24" viewBox="0 0 24 24" fill="none" xmlns="http://www.w3.org/2000/svg">
<path d="M10.1244 13.2423C10.1244 14.0552 9.53326 14.3121 8.80704 14.3121H6.90284V12.0841H8.84504C9.63037 12.0883 10.1244 12.4126 10.1244 13.2423ZM9.79925 9.77617C9.79925 9.03071 9.22081 8.85382 8.57904 8.85382H6.90706V10.7406H8.70993C9.34748 10.7406 9.79925 10.4627 9.79925 9.77617ZM15.3852 10.7533C14.6125 10.7533 14.0974 11.2334 14.0468 12.0041H16.673C16.6012 11.225 16.1959 10.7533 15.3852 10.7533ZM21.1654 4.27158V19.0965C21.1654 20.2126 20.2576 21.1181 19.1387 21.1181H4.27665C3.15777 21.1181 2.25 20.2126 2.25 19.0965V4.27158C2.25 3.1555 3.15777 2.25 4.27665 2.25H19.1387C20.2576 2.25 21.1654 3.1555 21.1654 4.27158ZM13.7217 8.69378H17.0065V7.89779H13.7217V8.69378ZM11.9061 13.3392C11.9061 12.3242 11.4248 11.4482 10.4284 11.166C11.1546 10.8207 11.5346 10.4205 11.5346 9.6077C11.5346 7.99886 10.3312 7.60718 8.94215 7.60718H5.12108V15.6935H9.05193C10.5255 15.6851 11.9061 14.9817 11.9061 13.3392ZM18.2943 12.7159C18.2943 10.9849 17.2767 9.54032 15.4401 9.54032C13.6499 9.54032 12.4381 10.8796 12.4381 12.6401C12.4381 14.4637 13.5908 15.7146 15.4401 15.7146C16.8418 15.7146 17.7496 15.087 18.1887 13.7435H16.7658C16.6096 14.2447 15.9805 14.5058 15.4907 14.5058C14.545 14.5058 14.051 13.9541 14.051 13.0191H18.2816C18.2858 12.9223 18.2943 12.817 18.2943 12.7159Z" fill="white"/>
</svg>
