<svg width="11" height="21" viewBox="0 0 11 21" fill="none" xmlns="http://www.w3.org/2000/svg">
<path d="M9.85901 0.492765L9.79647 2.95742C9.71309 2.95681 9.61845 2.95616 9.51452 2.9555C9.10455 2.95293 8.54967 2.95036 7.97041 2.95036C7.2967 2.95036 6.77967 3.10369 6.46073 3.50912C6.16158 3.88938 6.11842 4.39928 6.11842 4.87699V7.39993C6.11842 7.62084 6.29751 7.79993 6.51842 7.79993H9.86642L9.74045 10.4551H6.51842C6.29751 10.4551 6.11842 10.6342 6.11842 10.8551V20.0516H3.24756V10.8551C3.24756 10.6342 3.06847 10.4551 2.84756 10.4551H0.697852V7.79993H2.84756C3.06847 7.79993 3.24756 7.62084 3.24756 7.39993V4.44874C3.24756 3.37438 3.59562 2.36988 4.31933 1.63548C5.03988 0.904283 6.17323 0.4 7.8241 0.4C8.51431 0.4 9.11487 0.432942 9.54239 0.46585C9.66227 0.475078 9.76842 0.484294 9.85901 0.492765Z" stroke="white" stroke-width="0.8" stroke-linejoin="round"/>
</svg>
