<svg width="74" height="49" viewBox="0 0 74 49" fill="none" xmlns="http://www.w3.org/2000/svg">
<rect x="8" y="6" width="58" height="23" rx="2" fill="#E40000"/>
<rect x="1" y="43" width="6" height="5" rx="2" stroke="black"/>
<rect x="67" y="43" width="6" height="5" rx="2" stroke="black"/>
<path d="M17.2149 12.632C16.3723 12.632 15.9509 13.0907 15.9509 14.008V14.52H18.3029V16.12H16.0149V23H14.0149V16.12H12.6069V14.52H14.0149V13.976C14.0149 13.0587 14.2816 12.3387 14.8149 11.816C15.3483 11.2827 16.1003 11.016 17.0709 11.016C17.8389 11.016 18.4416 11.1707 18.8789 11.48L18.3189 12.984C17.9776 12.7493 17.6096 12.632 17.2149 12.632ZM20.9269 14.456H22.9269V23H20.9269V14.456ZM21.9349 13.048C21.5723 13.048 21.2683 12.936 21.0229 12.712C20.7776 12.4773 20.6549 12.1893 20.6549 11.848C20.6549 11.5067 20.7776 11.224 21.0229 11C21.2683 10.7653 21.5723 10.648 21.9349 10.648C22.2976 10.648 22.6016 10.76 22.8469 10.984C23.0923 11.1973 23.2149 11.4693 23.2149 11.8C23.2149 12.152 23.0923 12.4507 22.8469 12.696C22.6123 12.9307 22.3083 13.048 21.9349 13.048ZM31.0434 14.36C32.1208 14.36 32.9848 14.6747 33.6354 15.304C34.2861 15.9333 34.6114 16.8667 34.6114 18.104V23H32.6114V18.36C32.6114 17.6133 32.4354 17.0533 32.0834 16.68C31.7314 16.296 31.2301 16.104 30.5794 16.104C29.8434 16.104 29.2621 16.328 28.8354 16.776C28.4088 17.2133 28.1954 17.848 28.1954 18.68V23H26.1954V14.456H28.0994V15.56C28.4301 15.1653 28.8461 14.8667 29.3474 14.664C29.8488 14.4613 30.4141 14.36 31.0434 14.36ZM37.7886 14.456H39.7886V23H37.7886V14.456ZM38.7966 13.048C38.4339 13.048 38.1299 12.936 37.8846 12.712C37.6392 12.4773 37.5166 12.1893 37.5166 11.848C37.5166 11.5067 37.6392 11.224 37.8846 11C38.1299 10.7653 38.4339 10.648 38.7966 10.648C39.1592 10.648 39.4632 10.76 39.7086 10.984C39.9539 11.1973 40.0766 11.4693 40.0766 11.8C40.0766 12.152 39.9539 12.4507 39.7086 12.696C39.4739 12.9307 39.1699 13.048 38.7966 13.048ZM45.6936 23.112C45.0002 23.112 44.3229 23.0213 43.6616 22.84C43.0002 22.6587 42.4722 22.4293 42.0776 22.152L42.8456 20.632C43.2296 20.888 43.6882 21.096 44.2216 21.256C44.7656 21.4053 45.2989 21.48 45.8216 21.48C47.0162 21.48 47.6136 21.1653 47.6136 20.536C47.6136 20.2373 47.4589 20.0293 47.1496 19.912C46.8509 19.7947 46.3656 19.6827 45.6936 19.576C44.9896 19.4693 44.4136 19.3467 43.9656 19.208C43.5282 19.0693 43.1442 18.8293 42.8136 18.488C42.4936 18.136 42.3336 17.6507 42.3336 17.032C42.3336 16.2213 42.6696 15.576 43.3416 15.096C44.0242 14.6053 44.9416 14.36 46.0936 14.36C46.6802 14.36 47.2669 14.4293 47.8536 14.568C48.4402 14.696 48.9202 14.872 49.2936 15.096L48.5256 16.616C47.8002 16.1893 46.9842 15.976 46.0776 15.976C45.4909 15.976 45.0429 16.0667 44.7336 16.248C44.4349 16.4187 44.2856 16.648 44.2856 16.936C44.2856 17.256 44.4456 17.4853 44.7656 17.624C45.0962 17.752 45.6029 17.8747 46.2856 17.992C46.9682 18.0987 47.5282 18.2213 47.9656 18.36C48.4029 18.4987 48.7762 18.7333 49.0856 19.064C49.4056 19.3947 49.5656 19.864 49.5656 20.472C49.5656 21.272 49.2189 21.912 48.5256 22.392C47.8322 22.872 46.8882 23.112 45.6936 23.112ZM56.7759 14.36C57.8533 14.36 58.7173 14.6747 59.3679 15.304C60.0186 15.9333 60.3439 16.8667 60.3439 18.104V23H58.3439V18.36C58.3439 17.6133 58.1679 17.0533 57.8159 16.68C57.4639 16.296 56.9626 16.104 56.3119 16.104C55.5759 16.104 54.9946 16.328 54.5679 16.776C54.1413 17.2133 53.9279 17.848 53.9279 18.68V23H51.9279V11.128H53.9279V15.448C54.2586 15.096 54.6639 14.8293 55.1439 14.648C55.6346 14.456 56.1786 14.36 56.7759 14.36Z" fill="white"/>
<path d="M4 3V43.5" stroke="black"/>
<path d="M70 3V43" stroke="black"/>
<circle cx="4" cy="2" r="1.5" stroke="black"/>
<circle cx="70" cy="2" r="1.5" stroke="black"/>
</svg>
