<svg width="16" height="24" viewBox="0 0 16 24" fill="none" xmlns="http://www.w3.org/2000/svg">
<path d="M4.51486 8.30766L0.532438 3.95602C0.425368 3.84315 0.394424 3.67803 0.453336 3.53405C0.522343 3.3921 0.664799 3.30053 0.822551 3.29669H13.6138C13.6138 3.29669 13.772 3.29669 13.772 3.32305V2.84832C13.0959 2.7406 12.6147 2.13337 12.6643 1.45051C12.6642 0.659632 13.2976 0.0143873 14.0885 2.97745e-07C14.8985 -0.000504509 15.5634 0.640954 15.5918 1.45056C15.5647 2.08218 15.1582 2.63464 14.5633 2.84837V23.6044C14.5633 23.8229 14.3861 24 14.1676 24C13.9492 24 13.772 23.8229 13.772 23.6044V13.3187H0.822602C0.660761 13.3292 0.510933 13.233 0.453384 13.0813C0.400885 12.9367 0.431225 12.7751 0.532489 12.6594L4.51486 8.30766Z" fill="#232323"/>
</svg>
