<svg width="16" height="16" viewBox="0 0 16 16" fill="none" xmlns="http://www.w3.org/2000/svg">
<path d="M11.2212 1.18307H4.76922C2.68734 1.18307 1 2.87071 1 4.95229V11.4043C1 13.4862 2.68764 15.1735 4.76952 15.1735H11.2209C13.3028 15.1735 14.9905 13.4859 14.9905 11.404V4.95229C14.9905 2.87041 13.3028 1.18307 11.2209 1.18307H11.2212Z" stroke="white" stroke-width="0.8" stroke-miterlimit="10" stroke-linejoin="round"/>
<path d="M7.99511 11.5555C9.86022 11.5555 11.3722 10.0436 11.3722 8.17846C11.3722 6.31336 9.86022 4.80139 7.99511 4.80139C6.13001 4.80139 4.61804 6.31336 4.61804 8.17846C4.61804 10.0436 6.13001 11.5555 7.99511 11.5555Z" stroke="white" stroke-width="0.8" stroke-miterlimit="10" stroke-linejoin="round"/>
<path d="M12.0959 4.80109C12.4955 4.80109 12.8195 4.47713 12.8195 4.07752C12.8195 3.6779 12.4955 3.35394 12.0959 3.35394C11.6963 3.35394 11.3723 3.6779 11.3723 4.07752C11.3723 4.47713 11.6963 4.80109 12.0959 4.80109Z" fill="white"/>
</svg>
