<svg width="84" height="49" viewBox="0 0 84 49" fill="none" xmlns="http://www.w3.org/2000/svg">
<path d="M74.9802 41.7547C75.8317 42.6167 76.8762 43.0503 78.1139 43.0503C79.3515 43.0503 80.396 42.6167 81.2475 41.7547C82.099 40.8926 82.5248 39.8362 82.5248 38.5905C82.5248 37.3447 82.099 36.2883 81.2475 35.4263C80.396 34.5642 79.3515 34.1307 78.1139 34.1307C76.8762 34.1307 75.8317 34.5642 74.9802 35.4263C74.1287 36.2883 73.703 37.3447 73.703 38.5905C73.703 39.8362 74.1287 40.8926 74.9802 41.7547ZM82.5248 32.9547H84V43.7728C84 45.3973 83.4455 46.6729 82.3416 47.6047C81.2376 48.5366 79.9158 49 78.3812 49C75.7525 49 73.9852 48.0831 73.0743 46.2494L74.3713 45.5069C75.0446 46.8722 76.3762 47.5599 78.3762 47.5599C79.6584 47.5599 80.6733 47.2161 81.4109 46.5334C82.1485 45.8507 82.5198 44.9289 82.5198 43.7728V42.0138C81.4901 43.6682 79.9802 44.4904 78 44.4904C76.401 44.4904 75.0396 43.9173 73.9158 42.7762C72.7871 41.6351 72.2277 40.2349 72.2277 38.5855C72.2277 36.9311 72.7921 35.5359 73.9158 34.3948C75.0446 33.2537 76.4059 32.6806 78 32.6806C79.9852 32.6806 81.4901 33.5078 82.5198 35.1572V32.9547H82.5248ZM66.4703 32.6856C67.8267 32.6856 68.901 33.1042 69.6832 33.9363C70.4653 34.7685 70.8564 35.8947 70.8564 37.3048V44.2213H69.3812V37.3048C69.3812 36.2983 69.1139 35.5159 68.5842 34.9628C68.0545 34.4047 67.3069 34.1307 66.3366 34.1307C65.2624 34.1307 64.3911 34.4745 63.7178 35.1572C63.0446 35.8398 62.7129 36.8962 62.7129 38.3214V44.2263H61.2327V32.9597H62.7129V34.7187C63.5446 33.3633 64.797 32.6856 66.4703 32.6856ZM57.4455 44.2213V32.9547H58.9257V44.2213H57.4455ZM58.9455 30.2539C58.7376 30.4632 58.4852 30.5678 58.1832 30.5678C57.8812 30.5678 57.6287 30.4632 57.4208 30.2539C57.2129 30.0446 57.1089 29.7905 57.1089 29.4865C57.1089 29.1875 57.2129 28.9284 57.4208 28.7191C57.6287 28.5098 57.8812 28.4052 58.1832 28.4052C58.4852 28.4052 58.7376 28.5098 58.9455 28.7191C59.1535 28.9284 59.2574 29.1825 59.2574 29.4865C59.2574 29.7855 59.1535 30.0396 58.9455 30.2539ZM46.1139 41.7547C46.9654 42.6167 48.0099 43.0503 49.2475 43.0503C50.4852 43.0503 51.5297 42.6167 52.3812 41.7547C53.2327 40.8926 53.6584 39.8362 53.6584 38.5905C53.6584 37.3447 53.2327 36.2883 52.3812 35.4263C51.5297 34.5642 50.4852 34.1307 49.2475 34.1307C48.0099 34.1307 46.9654 34.5642 46.1139 35.4263C45.2624 36.2883 44.8366 37.3447 44.8366 38.5905C44.8366 39.8362 45.2624 40.8926 46.1139 41.7547ZM53.6584 28.45H55.1337V44.2213H53.6584V42.0138C52.6287 43.6682 51.1188 44.4904 49.1337 44.4904C47.5347 44.4904 46.1733 43.9173 45.0495 42.7762C43.9208 41.6351 43.3614 40.2349 43.3614 38.5855C43.3614 36.9311 43.9257 35.5359 45.0495 34.3948C46.1782 33.2537 47.5396 32.6806 49.1337 32.6806C51.1188 32.6806 52.6238 33.5078 53.6584 35.1572V28.45ZM37.599 32.6856C38.9554 32.6856 40.0297 33.1042 40.8119 33.9363C41.5941 34.7685 41.9851 35.8947 41.9851 37.3048V44.2213H40.5099V37.3048C40.5099 36.2983 40.2426 35.5159 39.7129 34.9628C39.1832 34.4047 38.4356 34.1307 37.4653 34.1307C36.3911 34.1307 35.5198 34.4745 34.8465 35.1572C34.1733 35.8398 33.8416 36.8962 33.8416 38.3214V44.2263H32.3614V32.9597H33.8416V34.7187C34.6733 33.3633 35.9307 32.6856 37.599 32.6856ZM21.0297 41.7547C21.8812 42.6167 22.9257 43.0503 24.1634 43.0503C25.401 43.0503 26.4455 42.6167 27.297 41.7547C28.1485 40.8926 28.5743 39.8362 28.5743 38.5905C28.5743 37.3447 28.1485 36.2883 27.297 35.4263C26.4455 34.5642 25.401 34.1307 24.1634 34.1307C22.9257 34.1307 21.8812 34.5642 21.0297 35.4263C20.1782 36.2883 19.7525 37.3447 19.7525 38.5905C19.7525 39.8362 20.1782 40.8926 21.0297 41.7547ZM28.5743 32.9547H30.0495V44.2213H28.5743V42.0138C27.5446 43.6682 26.0396 44.4904 24.0545 44.4904C22.4554 44.4904 21.0941 43.9173 19.9703 42.7762C18.8416 41.6351 18.2822 40.2349 18.2822 38.5855C18.2822 36.9311 18.8465 35.5359 19.9703 34.3948C21.099 33.2537 22.4604 32.6806 24.0545 32.6806C26.0396 32.6806 27.5446 33.5078 28.5743 35.1572V32.9547ZM14.8911 34.8283C15.5792 33.4629 16.7574 32.7753 18.4257 32.7753V34.2154C17.4109 34.2154 16.5693 34.5144 15.896 35.1173C15.2228 35.7202 14.8911 36.662 14.8911 37.9576V44.2213H13.4158V32.9547H14.896V34.8283H14.8911ZM2.75248 41.7547C3.60396 42.6167 4.64852 43.0503 5.88614 43.0503C7.12376 43.0503 8.16832 42.6167 9.0198 41.7547C9.87129 40.8926 10.297 39.8362 10.297 38.5905C10.297 37.3447 9.87129 36.2883 9.0198 35.4263C8.16832 34.5642 7.12376 34.1307 5.88614 34.1307C4.64852 34.1307 3.60396 34.5642 2.75248 35.4263C1.90099 36.2883 1.47525 37.3447 1.47525 38.5905C1.4802 39.8362 1.90099 40.8926 2.75248 41.7547ZM6 32.6856C7.59901 32.6856 8.9604 33.2586 10.0842 34.3998C11.2129 35.5409 11.7723 36.9411 11.7723 38.5905C11.7723 40.2448 11.2079 41.6401 10.0842 42.7812C8.95545 43.9223 7.59406 44.4953 6 44.4953C4.01485 44.4953 2.5099 43.6682 1.4802 42.0188V44.2263H0V28.455H1.4802V35.1721C2.5099 33.5128 4.01485 32.6856 6 32.6856Z" fill="white"/>
<path d="M42.9456 1.33747H46.5496V22.5003H42.406V5.75242L38.4406 6.86861L37.4208 3.30078L42.9456 1.33747ZM28.302 22.9239C26.2179 22.9239 24.4654 22.4555 23.0446 21.5187C21.6238 20.5819 20.6238 19.3062 20.0397 17.6967L23.5842 15.6088C24.406 17.7665 26.0149 18.8428 28.4208 18.8428C29.5842 18.8428 30.4307 18.6335 30.9753 18.2099C31.5149 17.7864 31.7872 17.2532 31.7872 16.6054C31.7872 15.858 31.4555 15.2799 30.7971 14.8663C30.1387 14.4528 28.9555 14.0043 27.2525 13.5209C26.3119 13.2369 25.5149 12.9579 24.8664 12.6738C24.2179 12.3898 23.5644 12.0161 22.9159 11.5377C22.2674 11.0643 21.7674 10.4663 21.4307 9.73883C21.0892 9.01131 20.9208 8.16918 20.9208 7.19749C20.9208 5.28402 21.5991 3.75423 22.9505 2.61811C24.302 1.477 25.9307 0.908936 27.8317 0.908936C29.5347 0.908936 31.0298 1.32751 32.3218 2.16465C33.6139 3.0018 34.6189 4.16284 35.3416 5.65774L31.8565 7.68084C31.0149 5.86703 29.6733 4.96012 27.8317 4.96012C26.9703 4.96012 26.2971 5.15446 25.802 5.54812C25.3119 5.94177 25.0644 6.45004 25.0644 7.07292C25.0644 7.73566 25.3416 8.27881 25.8911 8.6924C26.4406 9.10599 27.5 9.55446 29.0595 10.0378C29.6981 10.2371 30.1882 10.3966 30.5149 10.5062C30.8466 10.6158 31.2971 10.7902 31.8664 11.0195C32.4357 11.2487 32.8763 11.4679 33.1882 11.6673C33.5 11.8666 33.8515 12.1406 34.2525 12.4845C34.6535 12.8283 34.9604 13.1821 35.1684 13.5409C35.3763 13.9046 35.5595 14.3431 35.708 14.8564C35.8565 15.3696 35.9307 15.9277 35.9307 16.5357C35.9307 18.489 35.2228 20.0437 33.8119 21.1898C32.401 22.3508 30.5644 22.9239 28.302 22.9239ZM8.40599 18.5089C10.2278 18.5089 11.708 17.901 12.8515 16.6802C13.9951 15.4593 14.5644 13.8747 14.5644 11.9164C14.5644 9.96306 13.9951 8.37348 12.8515 7.15265C11.7129 5.93181 10.2278 5.32388 8.40599 5.32388H4.19807V18.5039H8.40599V18.5089ZM8.40599 1.33747C11.2872 1.33747 13.6981 2.35401 15.6288 4.39206C17.5595 6.42513 18.5248 8.93656 18.5248 11.9214C18.5248 14.9062 17.5595 17.4127 15.6288 19.4507C13.6981 21.4888 11.2872 22.5053 8.40599 22.5053H0.0545044V1.33747H8.40599Z" fill="white"/>
</svg>
