<svg width="349" height="220" viewBox="0 0 349 220" fill="none" xmlns="http://www.w3.org/2000/svg">
<path fill-rule="evenodd" clip-rule="evenodd" d="M156.615 25.7529L156.616 25.7995V92.3489L134.46 106.073C140.714 111.367 144.684 119.273 144.684 128.108C144.684 138.392 139.305 147.418 131.206 152.529L130.207 153.167L22.3193 220V192.934L118.808 133.159C120.907 131.914 122.315 129.626 122.315 127.009C122.315 124.831 121.34 122.881 119.804 121.571L115.082 118.08L0 189.358V106.594L22.3193 92.7852V149.953L57.5969 128.101C58.9632 127.012 59.8388 125.335 59.8388 123.453C59.8388 121.682 59.0636 120.092 57.8347 119.004L0 76.293L19.6697 64.1092L68.6839 100.293C73.8575 103.516 77.8758 108.418 79.9794 114.236L96.2519 104.157L64.6402 80.7815C57.6174 75.4198 53.5296 67.5111 53.5296 58.6274C53.5296 49.5057 58.1698 40.2679 66.0065 35.4072L100.627 13.9618V40.7041L79.3219 53.9018C77.1283 55.3155 75.6079 56.7261 75.6079 59.597C75.6079 62.0672 76.7616 63.4699 78.5926 64.8757L130.938 103.517C132.117 104.244 133.239 105.052 134.297 105.935V27.0916C134.295 25.5577 134.22 24.3708 132.831 23.3577C131.748 22.5667 130.138 22.422 128.983 23.1396L110.022 34.8864V8.14572L116.069 4.39687C116.83 3.88717 117.582 3.43753 118.377 3.01712C122.011 1.09133 126.156 0 130.555 0C144.859 0 156.476 11.4821 156.615 25.7529Z" fill="#E40000"/>
<path d="M12.8381 98.6509L12.8578 165.615L62.0111 135.157C63.571 134.19 64.8615 132.972 65.8793 131.594C67.6233 129.234 68.5622 126.399 68.687 123.543C68.8119 120.688 68.1244 117.819 66.6174 115.387C65.7687 114.018 64.6552 112.783 63.2747 111.762L8.29584 71.1548L11.3706 69.2495L65.2748 109.065C67.003 110.341 68.4017 111.895 69.4725 113.624C71.3422 116.641 72.1956 120.18 72.0423 123.688C71.889 127.193 70.7305 130.68 68.5772 133.594C67.3183 135.299 65.7165 136.808 63.7741 138.012L9.50411 171.642L9.48356 100.726L12.8381 98.6509ZM147.141 98.2179L143.773 100.305V26.0736C143.773 22.4607 142.307 19.1891 139.941 16.8224C137.573 14.4548 134.302 12.9905 130.689 12.9905C129.454 12.9905 128.275 13.1541 127.19 13.4497C126.052 13.7602 124.994 14.2185 124.061 14.7875L110.022 23.4864V19.5376L122.311 11.919C123.498 11.1951 124.849 10.6112 126.308 10.2129C127.705 9.83198 129.182 9.62097 130.689 9.62097C135.232 9.62097 139.345 11.463 142.322 14.4406C145.3 17.4174 147.141 21.5314 147.141 26.0736V98.2179ZM22.3193 208.44V204.492L124.296 141.309C126.169 140.148 127.698 138.715 128.884 137.108C130.861 134.43 131.887 131.265 131.983 128.069C132.081 124.857 131.246 121.614 129.503 118.8C128.425 117.063 126.997 115.485 125.222 114.174L114.741 106.435L81.3544 127.118C81.518 125.908 81.6042 124.673 81.6042 123.418C81.6042 123.285 81.601 123.152 81.5994 123.019L111.834 104.288L70.2327 73.5706C68.2674 72.1197 66.679 70.3591 65.4763 68.4159C63.5473 65.3008 62.6164 61.7202 62.7073 58.1887C62.7998 54.6374 63.9211 51.1311 66.0942 48.1875C67.3562 46.479 68.9747 44.9602 70.9542 43.7345L100.627 25.3584V29.3064L72.7172 46.5904C71.1201 47.579 69.8123 48.8062 68.7921 50.1883C67.0417 52.559 66.1377 55.3928 66.0634 58.2685C65.9884 61.1639 66.7509 64.0996 68.3314 66.6529C69.3129 68.2373 70.6152 69.6779 72.2328 70.8727L127.223 111.476C129.344 113.043 131.058 114.941 132.358 117.037C134.453 120.418 135.455 124.309 135.339 128.161C135.221 132.03 133.979 135.863 131.582 139.109C130.154 141.042 128.315 142.766 126.059 144.164L22.3193 208.44Z" fill="#232323"/>
<path d="M202.339 143.295C205.326 143.295 207.872 144.357 209.976 146.474C212.085 148.595 213.139 151.191 213.139 154.261C213.139 157.329 212.085 159.924 209.976 162.045C207.872 164.167 205.326 165.227 202.339 165.227C198.628 165.227 195.809 163.694 193.883 160.622V164.725H191.122V135.427H193.883V147.898C195.809 144.829 198.628 143.295 202.339 143.295ZM196.269 160.142C197.862 161.745 199.814 162.548 202.131 162.548C204.445 162.548 206.4 161.745 207.989 160.142C209.582 158.537 210.375 156.575 210.375 154.261C210.375 151.944 209.582 149.983 207.989 148.38C206.4 146.775 204.445 145.972 202.131 145.972C199.814 145.972 197.862 146.775 196.269 148.38C194.68 149.983 193.883 151.944 193.883 154.261C193.883 156.575 194.68 158.537 196.269 160.142ZM218.964 147.271C220.247 144.732 222.453 143.462 225.58 143.462V146.142C223.68 146.142 222.104 146.7 220.847 147.815C219.594 148.932 218.964 150.688 218.964 153.089V164.725H216.203V143.798H218.964V147.271ZM244.545 143.798H247.309V164.725H244.545V160.622C242.623 163.694 239.803 165.227 236.092 165.227C233.106 165.227 230.56 164.167 228.452 162.045C226.347 159.924 225.293 157.329 225.293 154.261C225.293 151.191 226.347 148.595 228.452 146.474C230.56 144.357 233.106 143.295 236.092 143.295C239.803 143.295 242.623 144.829 244.545 147.898V143.798ZM230.439 160.142C232.032 161.745 233.984 162.548 236.301 162.548C238.618 162.548 240.57 161.745 242.159 160.142C243.752 158.537 244.545 156.575 244.545 154.261C244.545 151.944 243.752 149.983 242.159 148.38C240.57 146.775 238.618 145.972 236.301 145.972C233.984 145.972 232.032 146.775 230.439 148.38C228.85 149.983 228.054 151.944 228.054 154.261C228.054 156.575 228.85 158.537 230.439 160.142ZM261.424 143.295C263.964 143.295 265.964 144.069 267.43 145.616C268.895 147.167 269.626 149.252 269.626 151.876V164.725H266.865V151.876C266.865 150.006 266.369 148.554 265.38 147.522C264.388 146.491 262.988 145.972 261.173 145.972C259.163 145.972 257.531 146.608 256.274 147.878C255.021 149.147 254.391 151.109 254.391 153.759V164.725H251.63V143.798H254.391V147.062C255.955 144.549 258.298 143.295 261.424 143.295ZM291.441 135.427H294.205V164.725H291.441V160.622C289.518 163.694 286.698 165.227 282.987 165.227C280.001 165.227 277.456 164.167 275.347 162.045C273.242 159.924 272.188 157.329 272.188 154.261C272.188 151.191 273.242 148.595 275.347 146.474C277.456 144.357 280.001 143.295 282.987 143.295C286.698 143.295 289.518 144.829 291.441 147.898V135.427ZM277.335 160.142C278.928 161.745 280.879 162.548 283.197 162.548C285.514 162.548 287.466 161.745 289.055 160.142C290.647 158.537 291.441 156.575 291.441 154.261C291.441 151.944 290.647 149.983 289.055 148.38C287.466 146.775 285.514 145.972 283.197 145.972C280.879 145.972 278.928 146.775 277.335 148.38C275.746 149.983 274.949 151.944 274.949 154.261C274.949 156.575 275.746 158.537 277.335 160.142ZM301.33 138.775C300.938 139.164 300.464 139.36 299.906 139.36C299.348 139.36 298.875 139.164 298.483 138.775C298.092 138.384 297.896 137.907 297.896 137.35C297.896 136.791 298.092 136.318 298.483 135.926C298.875 135.538 299.348 135.342 299.906 135.342C300.464 135.342 300.938 135.538 301.33 135.926C301.721 136.318 301.917 136.791 301.917 137.35C301.917 137.907 301.721 138.384 301.33 138.775ZM298.526 164.725V143.798H301.287V164.725H298.526ZM315.402 143.295C317.941 143.295 319.942 144.069 321.407 145.616C322.873 147.167 323.604 149.252 323.604 151.876V164.725H320.843V151.876C320.843 150.006 320.346 148.554 319.358 147.522C318.365 146.491 316.965 145.972 315.151 145.972C313.14 145.972 311.508 146.608 310.252 147.878C308.999 149.147 308.369 151.109 308.369 153.759V164.725H305.608V143.798H308.369V147.062C309.932 144.549 312.276 143.295 315.402 143.295ZM345.418 143.798H348.182V163.89C348.182 166.902 347.151 169.274 345.085 171.004C343.019 172.734 340.552 173.598 337.676 173.598C332.765 173.598 329.459 171.895 327.755 168.491L330.183 167.111C331.44 169.65 333.936 170.919 337.676 170.919C340.075 170.919 341.965 170.286 343.349 169.017C344.729 167.747 345.418 166.037 345.418 163.89V160.622C343.496 163.694 340.676 165.227 336.965 165.227C333.979 165.227 331.433 164.167 329.325 162.045C327.22 159.924 326.166 157.329 326.166 154.261C326.166 151.191 327.22 148.595 329.325 146.474C331.433 144.357 333.979 143.295 336.965 143.295C340.676 143.295 343.496 144.829 345.418 147.898V143.798ZM331.313 160.142C332.905 161.745 334.857 162.548 337.174 162.548C339.491 162.548 341.443 161.745 343.032 160.142C344.625 158.537 345.418 156.575 345.418 154.261C345.418 151.944 344.625 149.983 343.032 148.38C341.443 146.775 339.491 145.972 337.174 145.972C334.857 145.972 332.905 146.775 331.313 148.38C329.723 149.983 328.927 151.944 328.927 154.261C328.927 156.575 329.723 158.537 331.313 160.142Z" fill="white"/>
<path d="M206.834 85.0756C212.225 85.0756 216.726 86.9651 220.339 90.744C223.952 94.5268 225.757 99.1876 225.757 104.726C225.757 110.267 223.952 114.928 220.339 118.707C216.726 122.49 212.225 124.379 206.834 124.379H191.223V85.0756H206.834ZM206.834 116.968C210.241 116.968 213.012 115.835 215.146 113.57C217.277 111.305 218.345 108.358 218.345 104.726C218.345 101.097 217.277 98.1461 215.146 95.8813C213.012 93.6197 210.241 92.4872 206.834 92.4872H198.975V116.968H206.834ZM244.039 125.166C240.146 125.166 236.873 124.295 234.213 122.555C231.556 120.812 229.686 118.446 228.599 115.45L235.224 111.576C236.758 115.584 239.774 117.584 244.265 117.584C246.435 117.584 248.028 117.193 249.039 116.406C250.048 115.62 250.553 114.628 250.553 113.43C250.553 112.046 249.937 110.969 248.7 110.202C247.466 109.435 245.256 108.599 242.075 107.702C240.316 107.18 238.827 106.655 237.61 106.129C236.396 105.607 235.179 104.905 233.962 104.024C232.744 103.146 231.817 102.03 231.181 100.682C230.545 99.3378 230.228 97.7644 230.228 95.9658C230.228 92.4122 231.491 89.5761 234.017 87.4614C236.542 85.3459 239.585 84.2886 243.142 84.2886C246.324 84.2886 249.121 85.0654 251.536 86.619C253.951 88.1726 255.831 90.3331 257.179 93.1036L250.668 96.8667C249.095 93.4956 246.585 91.8116 243.142 91.8116C241.533 91.8116 240.27 92.1767 239.353 92.9084C238.436 93.6362 237.975 94.5821 237.975 95.7406C237.975 96.9781 238.491 97.9801 239.519 98.7467C240.551 99.514 242.525 100.346 245.443 101.247C246.641 101.618 247.551 101.909 248.168 102.115C248.785 102.32 249.627 102.64 250.694 103.071C251.762 103.502 252.583 103.903 253.164 104.278C253.746 104.65 254.411 105.156 255.159 105.793C255.906 106.429 256.477 107.085 256.872 107.758C257.264 108.433 257.6 109.246 257.88 110.202C258.161 111.155 258.302 112.196 258.302 113.319C258.302 116.948 256.983 119.83 254.342 121.964C251.705 124.099 248.269 125.166 244.039 125.166ZM271.422 85.0756H278.161V124.379H270.409V93.2704L262.998 95.3495L261.089 88.7242L271.422 85.0756Z" fill="white"/>
</svg>
