<svg width="34" height="34" viewBox="0 0 34 34" fill="none" xmlns="http://www.w3.org/2000/svg">
<path d="M17 0C12.0201 0 7.96875 4.05131 7.96875 9.03125V24.9688C7.96875 29.9487 12.0201 34 17 34C21.9799 34 26.0312 29.9487 26.0312 24.9688V9.03125C26.0312 4.05131 21.9799 0 17 0ZM24.9688 24.9688C24.9688 29.3627 21.394 32.9375 17 32.9375C12.606 32.9375 9.03125 29.3627 9.03125 24.9688V9.03125C9.03125 4.63728 12.606 1.0625 17 1.0625C21.394 1.0625 24.9688 4.63728 24.9688 9.03125V24.9688Z" fill="#232323"/>
<path d="M17.5312 5.3125H16.4688V9.5625H17.5312V5.3125Z" fill="#232323"/>
</svg>
