<svg width="375" height="44" viewBox="0 0 375 44" fill="none" xmlns="http://www.w3.org/2000/svg">
<path d="M44.091 8.30766L40.1086 3.95602C40.0015 3.84315 39.9706 3.67803 40.0295 3.53405C40.0985 3.3921 40.241 3.30053 40.3987 3.29669H53.1899C53.1899 3.29669 53.3482 3.29669 53.3482 3.32305V2.84832C52.6721 2.7406 52.1909 2.13337 52.2405 1.45051C52.2403 0.659632 52.8738 0.0143873 53.6647 2.97745e-07C54.4747 -0.000504509 55.1395 0.640954 55.168 1.45056C55.1409 2.08218 54.7344 2.63464 54.1394 2.84837V23.6044C54.1394 23.8229 53.9623 24 53.7438 24C53.5253 24 53.3482 23.8229 53.3482 23.6044V13.3187H40.3988C40.2369 13.3292 40.0871 13.233 40.0296 13.0813C39.9771 12.9367 40.0074 12.7751 40.1087 12.6594L44.091 8.30766Z" fill="#232323"/>
<path d="M386 34H52.5C48.3579 34 45 30.6421 45 26.5V26.25C45 22.2459 48.2459 19 52.25 19V19C56.2541 19 59.5 22.2459 59.5 26.25V34.5C59.5 38.9183 55.9183 42.5 51.5 42.5H-10" stroke="#232323" stroke-width="2" stroke-linecap="round" stroke-linejoin="round" stroke-dasharray="1 6"/>
</svg>
