<svg width="28" height="28" viewBox="0 0 28 28" fill="none" xmlns="http://www.w3.org/2000/svg">
<path d="M17.5595 17.5985L17.5608 17.5971L18.0903 17.0318C18.0906 17.0314 18.0909 17.0311 18.0912 17.0308C18.4233 16.6809 18.7474 16.6017 19.0984 16.6534C19.4925 16.7115 19.9489 16.9415 20.4733 17.2992C20.4736 17.2993 20.4738 17.2995 20.474 17.2997L21.1218 17.7443L21.1227 17.7449C21.6583 18.1109 22.0005 18.4298 22.1357 18.7082C22.1952 18.8307 22.2069 18.9304 22.1884 19.0249C22.1687 19.1254 22.1048 19.2691 21.9283 19.4562L21.9278 19.4568L21.4462 19.9691L21.4317 19.9845L21.4186 20.001C21.13 20.3653 20.1636 21.4176 18.3922 21.6218L18.3921 21.6218C16.2532 21.8686 13.7538 20.7893 10.9508 18.1941L10.9505 18.1938C8.14299 15.5989 6.88748 13.2078 6.98814 11.0858L6.98815 11.0856C7.07095 9.32327 8.06248 8.30151 8.41266 7.98873L8.42914 7.97401L8.44426 7.95789L8.9228 7.4477C8.923 7.4475 8.92319 7.44729 8.92338 7.44709C9.09996 7.26034 9.2417 7.18596 9.3449 7.15876C9.4428 7.13296 9.54756 7.13838 9.67711 7.18945C9.96917 7.30456 10.3141 7.62085 10.7198 8.12224C10.7201 8.12256 10.7203 8.12287 10.7206 8.12319L11.2117 8.73624L11.2122 8.7369C11.6093 9.23084 11.8711 9.66481 11.9559 10.0471C12.0308 10.3849 11.9752 10.7062 11.6457 11.0564L11.6456 11.0565L11.1124 11.6234C11.0925 11.6441 11.0608 11.6703 10.9895 11.7293C10.9798 11.7374 10.9694 11.746 10.9581 11.7553C10.8764 11.8229 10.7693 11.9134 10.664 12.0243C10.4488 12.2509 10.2254 12.5794 10.1801 13.0416C10.1355 13.4971 10.2713 14.0068 10.6173 14.5869C10.9624 15.1654 11.5337 15.8438 12.4122 16.6553C13.2912 17.468 14.014 17.9857 14.6199 18.2867C15.2275 18.5885 15.7473 18.6867 16.1989 18.6123C16.6575 18.5367 16.9716 18.2956 17.1856 18.0675C17.2902 17.9561 17.3742 17.8442 17.4368 17.7592C17.4432 17.7505 17.4493 17.7422 17.455 17.7344C17.5146 17.6536 17.5396 17.6196 17.5595 17.5985Z" stroke="white"/>
<circle cx="14" cy="14" r="13.5" stroke="white"/>
</svg>
