<svg width="554" height="378" viewBox="0 0 554 378" fill="none" xmlns="http://www.w3.org/2000/svg">
<mask id="mask0" mask-type="alpha" maskUnits="userSpaceOnUse" x="0" y="0" width="554" height="378">
<rect width="554" height="378" fill="#C4C4C4"/>
</mask>
<g mask="url(#mask0)">
<path d="M939.558 95.6766L471.479 -194.921C438.703 -215.27 397.663 -216.96 363.324 -199.377L175.737 -103.321C99.0288 -64.0419 95.2327 44.1892 169 88.746L644.13 375.733C676.742 395.432 717.226 396.852 751.138 379.487L931.675 287.041C1007.85 248.036 1012.26 140.814 939.558 95.6766Z" stroke="#E40000" stroke-width="65"/>
<path d="M939.558 95.6766L471.479 -194.921C438.703 -215.27 397.663 -216.96 363.324 -199.377L175.737 -103.321C99.0288 -64.0419 95.2327 44.1892 169 88.746L644.13 375.733C676.742 395.432 717.226 396.852 751.138 379.487L931.675 287.041C1007.85 248.036 1012.26 140.814 939.558 95.6766Z" stroke="#232323" stroke-width="8"/>
</g>
</svg>
