<svg width="554" height="363" viewBox="0 0 554 363" fill="none" xmlns="http://www.w3.org/2000/svg">
<mask id="mask0" mask-type="alpha" maskUnits="userSpaceOnUse" x="0" y="0" width="554" height="363">
<rect width="554" height="363" fill="#C4C4C4"/>
</mask>
<g mask="url(#mask0)">
<g style="mix-blend-mode:overlay">
<path fill-rule="evenodd" clip-rule="evenodd" d="M858.164 -50.4959C922.482 -83.3162 992.781 -18.0896 964.862 48.5019L907.684 184.878L947.138 258.883L1024.81 73.6347C1076.14 -48.8083 946.881 -168.74 828.62 -108.394L403.888 108.339L403.868 108.349L403.847 108.359L160.923 232.751C61.5519 283.635 56.6338 423.844 152.196 481.565L570.729 734.367C599.518 751.756 631.682 757.691 662.25 753.79C655.292 751.275 648.528 748.063 642.062 744.157L166.776 457.076C90.3606 410.919 94.2485 298.817 173.678 258.065L680.833 -2.13119C710.72 -17.4646 744.261 -18.3312 773.414 -7.25001L858.164 -50.4959ZM763.487 -2.18417C738.121 -9.83825 709.884 -8.04401 684.485 4.98668L177.33 265.183C103.474 303.075 99.8593 407.311 170.912 450.228L646.198 737.31C656.717 743.663 668.087 748.044 679.784 750.432C721.228 739.786 757.714 710.68 775.822 667.49L943.147 268.402L903.693 194.397L715.878 642.357C697.588 685.98 644.825 703.185 604.336 678.729L185.803 425.927C133.83 394.535 136.505 318.281 190.549 290.607L433.451 166.226L433.473 166.215L763.487 -2.18417Z" fill="white" fill-opacity="0.7"/>
</g>
</g>
</svg>
