<svg width="617" height="409" viewBox="0 0 617 409" fill="none" xmlns="http://www.w3.org/2000/svg">
<mask id="mask0" mask-type="alpha" maskUnits="userSpaceOnUse" x="0" y="0" width="617" height="409">
<rect width="617" height="409" fill="#C4C4C4"/>
</mask>
<g mask="url(#mask0)">
<g style="mix-blend-mode:overlay">
<path fill-rule="evenodd" clip-rule="evenodd" d="M683.858 2208.2C683.961 2299.61 584.23 2356.12 505.864 2309.06L-137.617 1922.62C-172.507 1901.66 -194.069 1864.15 -194.613 1823.45L-215.944 225.774C-217.173 133.726 -116.878 76.0798 -37.9607 123.474L625.069 521.659C660.397 542.876 682.028 581.049 682.075 622.258L683.858 2208.2ZM472.399 2364.78C594.117 2437.88 749.018 2350.11 748.858 2208.12L747.074 622.185C747.003 558.179 713.405 498.889 658.534 465.936L-4.49576 67.7507C-127.07 -5.86181 -282.848 83.6743 -280.939 226.641L-259.607 1824.32C-258.763 1887.53 -225.272 1945.8 -171.082 1978.34L472.399 2364.78ZM712.358 2208.17C712.486 2321.75 588.565 2391.97 491.191 2333.49L-152.291 1947.05C-195.642 1921.01 -222.435 1874.4 -223.11 1823.83L-244.442 226.154C-245.969 111.78 -121.347 40.1515 -23.2878 99.0415L639.742 497.227C683.639 523.589 710.517 571.021 710.574 622.226L712.358 2208.17ZM487.072 2340.35C589.782 2402.03 720.493 2327.97 720.358 2208.16L718.574 622.217C718.514 568.207 690.163 518.176 643.861 490.368L-19.169 92.1832C-122.601 30.0664 -254.052 105.62 -252.441 226.261L-231.11 1823.94C-230.397 1877.28 -202.137 1926.44 -156.409 1953.91L487.072 2340.35Z" fill="white" fill-opacity="0.7"/>
</g>
</g>
</svg>
