<svg width="377" height="538" viewBox="0 0 377 538" fill="none" xmlns="http://www.w3.org/2000/svg">
<mask id="mask0" mask-type="alpha" maskUnits="userSpaceOnUse" x="0" y="0" width="377" height="538">
<path d="M0 0H377L367 538L0 320V0Z" fill="#C4C4C4"/>
</mask>
<g mask="url(#mask0)">
<g style="mix-blend-mode:overlay">
<path fill-rule="evenodd" clip-rule="evenodd" d="M206.199 1475.51C207.045 1575.12 98.4566 1637.18 13.0604 1585.89L-374.483 1353.15C-412.052 1330.59 -435.401 1290.32 -436.313 1246.5L-458.574 176.978C-460.662 76.6825 -351.46 13.3733 -265.459 65.0211L135.329 305.716C173.377 328.566 196.805 369.557 197.182 413.937L206.199 1475.51ZM-20.4046 1641.62C108.527 1719.05 272.474 1625.35 271.196 1474.96L262.18 413.385C261.611 346.38 226.239 284.492 168.794 249.993L-231.994 9.29768C-361.838 -68.6802 -526.712 26.904 -523.56 178.33L-501.299 1247.85C-499.922 1314 -464.669 1374.81 -407.948 1408.88L-20.4046 1641.62ZM234.697 1475.27C235.733 1597.14 102.872 1673.07 -1.6127 1610.33L-389.156 1377.59C-435.123 1349.98 -463.691 1300.7 -464.807 1247.1L-487.068 177.571C-489.623 54.8565 -356.01 -22.604 -250.786 40.5885L150.002 281.284C196.555 309.241 225.22 359.395 225.681 413.695L234.697 1475.27ZM-5.73146 1617.18C104.111 1683.15 243.785 1603.32 242.697 1475.2L233.681 413.627C233.196 356.542 203.061 303.817 154.121 274.426L-246.668 33.7303C-357.287 -32.7029 -497.752 48.73 -495.067 177.737L-472.805 1247.26C-471.632 1303.62 -441.599 1355.42 -393.275 1384.44L-5.73146 1617.18Z" fill="white" fill-opacity="0.7"/>
</g>
</g>
</svg>
