<svg width="375" height="261" viewBox="0 0 375 261" fill="none" xmlns="http://www.w3.org/2000/svg">
<g style="mix-blend-mode:overlay">
<path fill-rule="evenodd" clip-rule="evenodd" d="M-122.926 1402.71C-128.008 1477.46 -49.5371 1529.13 17.1257 1494.93L457.654 1268.9C487.333 1253.67 507.019 1224.17 509.688 1190.92L594.037 140.305C600.075 65.0946 521.204 12.4661 454.073 46.9107L0.161119 279.808C-29.8909 295.227 -49.6685 325.263 -51.9598 358.962L-122.926 1402.71ZM-104.169 1403.98C-108.26 1464.14 -45.1065 1505.73 8.54335 1478.2L449.072 1252.17C472.957 1239.92 488.8 1216.17 490.949 1189.41L575.297 138.801C580.157 78.2716 516.682 35.9166 462.655 63.6373L8.74325 296.535C-15.4423 308.944 -31.3593 333.117 -33.2033 360.238L-104.169 1403.98Z" fill="white" fill-opacity="0.7"/>
<path fill-rule="evenodd" clip-rule="evenodd" d="M28.1169 1516.35C-55.2116 1559.1 -153.3 1494.52 -146.947 1401.07L-75.9814 357.329C-73.1174 315.205 -48.3952 277.661 -10.8303 258.386L443.081 25.489C526.996 -17.5667 625.584 48.2188 618.037 142.232L533.688 1192.84C530.351 1234.41 505.744 1271.28 468.646 1290.32L28.1169 1516.35ZM19.5347 1499.62C-50.7808 1535.7 -133.552 1481.2 -128.191 1402.35L-57.2247 358.604C-54.808 323.059 -33.9466 291.377 -2.24794 275.113L451.664 42.2156C522.474 5.8836 605.666 61.3958 599.297 140.728L514.949 1191.34C512.133 1226.41 491.369 1257.53 460.063 1273.59L19.5347 1499.62Z" fill="white" fill-opacity="0.7"/>
</g>
</svg>
