<svg width="175" height="152" viewBox="0 0 175 152" fill="none" xmlns="http://www.w3.org/2000/svg">
<path fill-rule="evenodd" clip-rule="evenodd" d="M597.617 261.68C634.102 284.339 631.885 338.166 593.66 357.746L465.072 423.616C448.054 432.334 427.739 431.621 411.373 421.732L72.9584 217.246C35.9407 194.878 37.8456 140.545 76.339 120.826L209.95 52.3837C227.181 43.5566 247.776 44.4054 264.224 54.6204L597.617 261.68ZM614.762 398.97C685.045 362.967 689.121 263.996 622.036 222.332L288.643 15.2724C258.401 -3.51017 220.533 -5.07078 188.848 11.1596L55.2379 79.6023C-15.5403 115.859 -19.043 215.761 49.022 256.889L387.437 461.376C417.528 479.559 454.882 480.869 486.173 464.84L614.762 398.97ZM608.324 244.427C658.226 275.42 655.194 349.04 602.913 375.821L474.324 441.691C451.048 453.615 423.262 452.64 400.878 439.114L62.4633 234.628C11.8325 204.034 14.438 129.721 67.087 102.751L200.698 34.3085C224.266 22.2354 252.435 23.3963 274.931 37.3678L608.324 244.427ZM605.51 380.895C661.737 352.093 664.997 272.916 611.329 239.584L277.936 32.525C253.742 17.499 223.448 16.2505 198.1 29.2348L64.4899 97.6774C7.86744 126.683 5.06527 206.605 59.5172 239.507L397.932 443.994C422.005 458.54 451.888 459.588 476.921 446.765L605.51 380.895Z" fill="#E40000"/>
</svg>
